<svg width="178.83777399634988" height="227.23216750019088" xmlns="http://www.w3.org/2000/svg"><style><![CDATA[@import url("https://fonts.googleapis.com/css?family=Archivo+Narrow:700i");]]><![CDATA[@import url("https://fonts.googleapis.com/css?family=Archivo+Narrow:700");]]></style><rect x="0" y="0" width="178.83777399634988" height="227.23216750019088" id="background" fill="#CCC5B8"/><g id="map" transform="translate(89.41888699817494 113.61608375009544)"><g fill="none"><polyline points="-25.041782928762608,34.728439267377176 -33.48555816731403,64.00301785990703 -47.21024761220043,78.27912717506862 -66.48580685875999,87.4605150590314 -76.87846482945002,97.94227514978198 -82.210313961613,103.07418284197766 -85.94557357881224,106.35015816586866 -89.2389834555689,108.93484113153833 -92.09054359188298,110.82823173898672 -94.88516724592813,112.41854332490826 -97.62285441770439,113.70577588930296 -100.30360510721175,114.68992943217083 -102.92741931445022,115.37100395351183 -105.77564157597206,116.57176539953487 -108.84827189177729,118.29221377023991 -112.14531026186587,120.53234906562696 -115.66675668623785,123.29217128569603 -119.96499599508137,127.17650167029673 -125.04002818839646,132.18534021942907 -132.54900775674767,140.13315065264197 -147.46339817182863,156.46332412858214" stroke="#67635C" stroke-width="2.1" stroke-linejoin="round" stroke-linecap="butt"/><polyline points="-25.041782928762608,34.728439267377176 -33.48555816731403,64.00301785990703 -47.21024761220043,78.27912717506862 -66.48580685875999,87.4605150590314 -76.87846482945002,97.94227514978198 -82.210313961613,103.07418284197766 -85.94557357881224,106.35015816586866 -89.2389834555689,108.93484113153833 -92.09054359188298,110.82823173898672 -94.88516724592813,112.41854332490826 -97.62285441770439,113.70577588930296 -100.30360510721175,114.68992943217083 -102.92741931445022,115.37100395351183 -105.77564157597206,116.57176539953487 -108.84827189177729,118.29221377023991 -112.14531026186587,120.53234906562696 -115.66675668623785,123.29217128569603 -119.96499599508137,127.17650167029673 -125.04002818839646,132.18534021942907 -132.54900775674767,140.13315065264197 -147.46339817182863,156.46332412858214" stroke="#CCC5B8" stroke-width="1.9" stroke-linejoin="round" stroke-linecap="round"/></g><g fill="none"><polyline points="-2.211815403933462,-58.11409094273439 -3.6202059768807615,-92.7800697917462 -8.168234112047958,-100.74699028977867 -10.698995149699659,-104.82759260511061 -12.728498468224927,-107.67751690375286 -14.762080527086791,-110.1819765743757 -16.799741326285243,-112.34097161697912 -19.009926352307964,-114.44957316111987 -21.392635605154947,-116.50778120679797 -23.9478690848262,-118.5155957540134 -26.67562679132171,-120.47301680276617 -29.095778963175622,-122.64998399662576 -31.20832560038793,-125.0464973355922 -33.01326670295863,-127.66255681966547 -34.51060227088772,-130.49816244884556 -35.70033230417521,-133.55331422313247 -36.5824568028211,-136.8280121425262 -37.156975766825376,-140.32225620702678 -37.42388919618806,-144.03604641663424 -38.27434294810686,-147.87758151311172 -39.70833702258181,-151.8468614964593 -41.725871419612886,-155.94388636667696 -44.326946139200096,-160.16865612376466 -48.12846568256991,-165.11313943079352 -53.130430049722335,-170.77733628776343 -61.18355274433676,-178.9371526838875 -77.83997427745142,-194.9203065868047" stroke="#67635C" stroke-width="2.1" stroke-linejoin="round" stroke-linecap="butt"/><polyline points="-2.211815403933462,-58.11409094273439 -3.6202059768807615,-92.7800697917462 -8.168234112047958,-100.74699028977867 -10.698995149699659,-104.82759260511061 -12.728498468224927,-107.67751690375286 -14.762080527086791,-110.1819765743757 -16.799741326285243,-112.34097161697912 -19.009926352307964,-114.44957316111987 -21.392635605154947,-116.50778120679797 -23.9478690848262,-118.5155957540134 -26.67562679132171,-120.47301680276617 -29.095778963175622,-122.64998399662576 -31.20832560038793,-125.0464973355922 -33.01326670295863,-127.66255681966547 -34.51060227088772,-130.49816244884556 -35.70033230417521,-133.55331422313247 -36.5824568028211,-136.8280121425262 -37.156975766825376,-140.32225620702678 -37.42388919618806,-144.03604641663424 -38.27434294810686,-147.87758151311172 -39.70833702258181,-151.8468614964593 -41.725871419612886,-155.94388636667696 -44.326946139200096,-160.16865612376466 -48.12846568256991,-165.11313943079352 -53.130430049722335,-170.77733628776343 -61.18355274433676,-178.9371526838875 -77.83997427745142,-194.9203065868047" stroke="#CCC5B8" stroke-width="1.9" stroke-linejoin="round" stroke-linecap="round"/></g><g fill="none"><polyline points="32.65499014184902,29.327136034190392 54.137007530673756,43.113946393762156 61.87412686903237,43.62204994877482 65.96447217708668,43.75111635298582 68.98708323428957,43.67051345806604 71.80163996712533,43.43669721457243 74.40814237559395,43.049667622505005 77.09315043519021,42.52824333204942 79.85666414591408,41.872424343205665 82.6986835077656,41.082210655973746 85.61920852074472,40.157602270353664 88.57610957487357,39.577676828115344 91.56938667015213,39.342434329258786 94.5990398065804,39.451874773784 97.66506898415835,39.90599816169096 100.76747420288604,40.7048044929797 103.90625546276343,41.8482937676502 107.08141276379052,43.33646598570246 110.29294610596732,45.169321147136486 113.29553699652791,46.990764566788805 116.08918543547227,48.800796244659416 118.67389142280044,50.59941618074832 121.04965495851238,52.386624375055504 123.2164760426081,54.162420827580995 125.17435467508761,55.92680553832478 126.92329085595088,57.679778507286855 128.46328458519795,59.42133973446721 130.11119354952652,61.079428146538376 131.8670177489366,62.65404374350035 133.73075718342818,64.14518652535313 135.7024118530013,65.5528564920967 137.7819817576559,66.87705364373107 139.96946689739198,68.11777798025626 142.26486727220959,69.27502950167224 144.66818288210874,70.34880820797903 146.63186204002355,72.41175925095641 148.15590474595407,75.46388263060436 149.24031099990032,79.50517834692292 149.88508080186227,84.53564639991203 149.95099215109303,91.67868146453068 149.43804504759262,100.93428354077885 147.9285734891203,115.67263665353335 144.169579468954,146.00429287742458" stroke="#67635C" stroke-width="2.1" stroke-linejoin="round" stroke-linecap="butt"/><polyline points="32.65499014184902,29.327136034190392 54.137007530673756,43.113946393762156 61.87412686903237,43.62204994877482 65.96447217708668,43.75111635298582 68.98708323428957,43.67051345806604 71.80163996712533,43.43669721457243 74.40814237559395,43.049667622505005 77.09315043519021,42.52824333204942 79.85666414591408,41.872424343205665 82.6986835077656,41.082210655973746 85.61920852074472,40.157602270353664 88.57610957487357,39.577676828115344 91.56938667015213,39.342434329258786 94.5990398065804,39.451874773784 97.66506898415835,39.90599816169096 100.76747420288604,40.7048044929797 103.90625546276343,41.8482937676502 107.08141276379052,43.33646598570246 110.29294610596732,45.169321147136486 113.29553699652791,46.990764566788805 116.08918543547227,48.800796244659416 118.67389142280044,50.59941618074832 121.04965495851238,52.386624375055504 123.2164760426081,54.162420827580995 125.17435467508761,55.92680553832478 126.92329085595088,57.679778507286855 128.46328458519795,59.42133973446721 130.11119354952652,61.079428146538376 131.8670177489366,62.65404374350035 133.73075718342818,64.14518652535313 135.7024118530013,65.5528564920967 137.7819817576559,66.87705364373107 139.96946689739198,68.11777798025626 142.26486727220959,69.27502950167224 144.66818288210874,70.34880820797903 146.63186204002355,72.41175925095641 148.15590474595407,75.46388263060436 149.24031099990032,79.50517834692292 149.88508080186227,84.53564639991203 149.95099215109303,91.67868146453068 149.43804504759262,100.93428354077885 147.9285734891203,115.67263665353335 144.169579468954,146.00429287742458" stroke="#CCC5B8" stroke-width="1.9" stroke-linejoin="round" stroke-linecap="round"/></g><g fill="#99948A" stroke="#1A1917" stroke-width="0.09999999999999999"><path d="M 0.33338409020879256,-1.955034699842686 L -0.03463075641248281,-5.53774237412184 L 3.257586273040685,-5.875918093518743 L 3.6256011196619604,-2.2932104192395895 Z M 0.4776030628671175,-0.5510304188649509 L -6.540131254298962,0.1698295153411984 L -7.410503511220733,-4.780094548136442 L -0.03463075641248281,-5.53774237412184 Z M -2.7396128044318466,6.184483078872079 L -3.4142656788598034,6.437290621092698 L -5.707000115116958,4.907958334445098 L -6.540131254298962,0.1698295153411984 L -3.390667617226143,-0.15368261088044222 Z M -3.390667617226143,-0.15368261088044222 L 3.7698200923202854,-0.8892061382618541 L 4.228225889589974,3.5734778618276755 L -2.7396128044318466,6.184483078872079 Z M 8.28955607385943,-3.5502347722666694 L 7.502531740074316,0.410103872547497 L 3.9408652763694336,0.775957371220179 L 3.546525255769937,-3.063031819156523 Z M 3.546525255769937,-3.063031819156523 L 3.257586273040685,-5.875918093518743 L 8.866220877095303,-6.4520356535374335 L 8.28955607385943,-3.5502347722666694 Z M 7.502531740074316,0.410103872547497 L 7.086752091942728,2.5023240715132244 L 4.228225889589974,3.5734778618276755 L 3.9408652763694336,0.775957371220179 Z"/><path d="M 2.978118186404891,10.701229295889132 L -2.799206636911428,6.847556038740349 L 1.0005154113346735,5.423715085045312 Z M 1.0005154113346735,5.423715085045312 L 6.949174682470726,3.1946192242754985 L 5.167229301091949,12.161441282854087 L 2.978118186404891,10.701229295889132 Z"/></g><g fill="#99948A" stroke="#1A1917" stroke-width="0.09999999999999999"><path d="M 3.2565350216661635,-20.251893724514144 L 6.126083893798882,-21.1896189664008 L 6.892369642344976,-17.079058380352887 L 3.950255417313677,-16.530592993688 Z M 3.950255417313677,-16.530592993688 L 0.40587708277688517,-15.869854257849934 L 0.4088542890220702,-19.321314660408504 L 3.2565350216661635,-20.251893724514144 Z M 3.5842954701737337,-14.169289775917461 L 3.171178622211739,-16.385358436840473 L 6.892369642344976,-17.079058380352887 L 7.305486490306971,-14.862989719429875 Z M 7.305486490306971,-14.862989719429875 L 7.692789411550987,-12.785393827887452 L 3.9715983914177495,-12.091693884375037 L 3.5842954701737337,-14.169289775917461 Z M 3.9715983914177495,-12.091693884375037 L 0.40204407023703226,-11.426261871460285 L 0.40587708277688517,-15.869854257849934 L 3.171178622211739,-16.385358436840473 Z M 7.692789411550987,-12.785393827887452 L 8.689432018998948,-7.4391377761149 L 0.39787012731571936,-6.5874305883570905 L 0.40204407023703226,-11.426261871460285 Z"/><path d="M -9.33757537456532,-8.825856329410993 L -9.787343524659828,-8.678878889355467 L -14.04755207743073,-14.597179348254539 L -11.496029528133501,-15.430978389962704 Z M -11.496029528133501,-15.430978389962704 L -7.02906978924626,-16.89071338256898 L -4.87061563567808,-10.285591322017268 L -9.33757537456532,-8.825856329410993 Z M -6.527987667619029,-5.8760081878017605 L -7.684240007438586,-5.7572382332924805 L -9.787343524659828,-8.678878889355467 L -7.6700281499803555,-9.370785582826768 Z M -7.6700281499803555,-9.370785582826768 L -4.87061563567808,-10.285591322017268 L -3.530256098585239,-6.1839344335040956 L -6.527987667619029,-5.8760081878017605 Z M -3.6691225772369243,-14.709524609775423 L -6.06087851344308,-13.927934884786403 L -7.02906978924626,-16.89071338256898 L -4.637313853040108,-17.672303107557997 Z M -4.637313853040108,-17.672303107557997 L -2.9434352157976726,-18.225837069031975 L -1.9752439399944919,-15.263058571249399 L -3.6691225772369243,-14.709524609775423 Z M -2.9434352157976726,-18.225837069031975 L -0.19131511140708013,-19.125188362767823 L -0.1941444976321518,-15.845094974822514 L -1.9752439399944919,-15.263058571249399 Z M -0.1941444976321518,-15.845094974822514 L -0.19794290181788377,-11.441623881353285 L -4.761097747560969,-9.950453780350454 L -6.06087851344308,-13.927934884786403 Z M -0.19794290181788377,-11.441623881353285 L -0.20218326385074212,-6.525793252355589 L -3.530256098585239,-6.1839344335040956 L -4.761097747560969,-9.950453780350454 Z"/></g><g fill="#99948A" stroke="#1A1917" stroke-width="0.09999999999999999"><path d="M 10.086717311860856,7.806752305739236 L 11.369220985429434,4.587476015674928 L 15.279096060708707,6.145102232075171 L 13.329423019394458,9.098589851664988 Z M 13.329423019394458,9.098589851664988 L 11.475143466830227,11.907569401418266 L 8.866963903164358,10.868516033413886 L 10.086717311860856,7.806752305739236 Z M 8.866963903164358,10.868516033413886 L 6.243591094296481,9.823409940812633 L 7.583798850097898,3.079429685649143 L 11.369220985429434,4.587476015674928 Z M 11.475143466830227,11.907569401418266 L 9.923662465804082,14.257850618555416 L 5.707755458851837,12.519756779434505 L 6.243591094296481,9.823409940812633 Z"/><path d="M 15.13095698363573,11.161854082041076 L 16.94716662612879,11.910623631503041 L 15.099716397439476,16.39178465331885 L 13.283506754946416,15.643015103856884 Z M 13.283506754946416,15.643015103856884 L 10.488800639270282,14.490840382308232 L 13.209323223429848,10.369621285123879 L 15.13095698363573,11.161854082041076 Z M 16.12308758208322,13.909503403052907 L 16.94716662612879,11.910623631503041 L 18.941632860020135,12.7328831044337 L 18.65181505343297,14.952022991725272 Z M 18.65181505343297,14.952022991725272 L 18.291908811184737,17.707831226089468 L 15.099716397439476,16.39178465331885 L 16.12308758208322,13.909503403052907 Z M 19.223780565251243,10.572473314023458 L 18.941632860020135,12.7328831044337 L 15.58590032137213,11.349413772320007 L 16.388169905648247,9.403434858129131 Z M 16.388169905648247,9.403434858129131 L 17.385521868355458,6.984265631856758 L 19.5783101374427,7.8578343339721926 L 19.223780565251243,10.572473314023458 Z M 15.58590032137213,11.349413772320007 L 13.209323223429848,10.369621285123879 L 15.848336449829713,6.371877700973094 L 17.385521868355458,6.984265631856758 Z"/><path d="M 8.099507500177912,0.4843626607781306 L 8.696011138056171,-2.5172680480209046 L 14.304075517323163,-1.4027969060906296 L 13.707571879444904,1.5988338027084052 Z M 13.707571879444904,1.5988338027084052 L 13.104609600382098,4.632964658171432 L 7.70273248248993,2.4809507818711927 L 8.099507500177912,0.4843626607781306 Z M 14.304075517323163,-1.4027969060906296 L 15.311398170186369,-1.202615176476565 L 15.233781919585017,5.481189872473782 L 13.104609600382098,4.632964658171432 Z M 13.47601124461174,-5.839842812459338 L 15.360807554756676,-5.457428975106264 L 15.311398170186369,-1.202615176476565 L 12.659211869522306,-1.729674941703306 Z M 9.1485833437104,-4.7946299016260445 L 9.515965564781435,-6.643312267681753 L 13.47601124461174,-5.839842812459338 L 13.111784075176534,-4.007036795308446 Z M 13.111784075176534,-4.007036795308446 L 12.659211869522306,-1.729674941703306 L 8.696011138056171,-2.5172680480209046 L 9.1485833437104,-4.7946299016260445 Z"/><path d="M 15.929894423645912,-2.791908176842062 L 15.959437562765679,-5.335970546264253 L 21.163513498355805,-4.280094832960902 L 20.884648585815466,-2.144821442165234 Z M 17.66592667081241,-1.0415660974650784 L 17.861572897243295,-2.5396325895951013 L 20.884648585815466,-2.144821442165234 L 20.68900235938458,-0.6467549500352121 Z M 20.68900235938458,-0.6467549500352121 L 20.359305566022442,1.8777390190474137 L 17.336229877450272,1.4829278716175476 L 17.66592667081241,-1.0415660974650784 Z M 17.336229877450272,1.4829278716175476 L 15.882457311442984,1.293066394759028 L 15.929894423645912,-2.791908176842062 L 17.861572897243295,-2.5396325895951013 Z M 15.856339910522474,3.5421265437032456 L 15.882457311442984,1.293066394759028 L 20.359305566022442,1.8777390190474137 L 20.070068012732264,4.092435896948935 Z M 17.55261539573366,3.763658698258625 L 20.070068012732264,4.092435896948935 L 19.658487412498268,7.243915571611257 L 17.22472178318983,6.27434568106587 Z M 17.22472178318983,6.27434568106587 L 15.831059218770775,5.719134758630028 L 15.856339910522474,3.5421265437032456 L 17.55261539573366,3.763658698258625 Z"/></g><g fill="#99948A" stroke="#1A1917" stroke-width="0.09999999999999999"><path d="M -13.372759931045998,-2.19224428180956 L -13.241294835502151,-2.2800482297629325 L -8.979885288065812,-2.156613843486591 L -7.855093519884483,4.240228192142247 Z M -10.0791041428337,7.154025117966567 L -12.855761633362944,9.535795087886227 L -17.093633219605543,4.595302079554914 L -14.316975729076296,2.2135321096352523 Z M -9.031831874978657,2.8683915289335364 L -7.855093519884483,4.240228192142247 L -7.701374530622595,5.114448754562203 L -10.0791041428337,7.154025117966567 L -11.7530200915588,5.202580891091584 Z M -14.916613483618335,-1.1611231586177402 L -13.372759931045998,-2.19224428180956 L -11.595787512496152,-0.12065725252279424 L -12.994763882539555,1.079361085411096 Z M -12.994763882539555,1.079361085411096 L -14.495493042129334,2.366661250262327 L -16.572757285682478,-0.05500473533449579 L -14.916613483618335,-1.1611231586177402 Z M -14.495493042129334,2.366661250262327 L -17.093633219605543,4.595302079554914 L -19.4127390886832,1.8916981362563838 L -19.18972256607327,1.6928347373761872 L -16.572757285682478,-0.05500473533449579 Z M -22.657642205860547,9.319051192920453 L -24.747597589096557,6.648781071284954 L -19.4127390886832,1.8916981362563838 L -17.117829934779714,4.567093649990729 Z M -20.986217380798017,11.454578011686182 L -22.657642205860547,9.319051192920453 L -19.223218709552487,6.373060635786999 L -17.459389912653382,8.429324885808711 Z M -19.08196494665932,9.821142386929495 L -17.459389912653382,8.429324885808711 L -14.961150408135715,11.341762073682496 L -16.583725442141652,12.73357957480328 Z M -16.583725442141652,12.73357957480328 L -18.618856368128494,14.479280562736921 L -20.986217380798017,11.454578011686182 L -19.08196494665932,9.821142386929495 Z M -14.29981476635729,7.852323972249385 L -12.855761633362944,9.535795087886227 L -14.961150408135715,11.341762073682496 L -16.405203541130064,9.658290958045654 Z"/><path d="M -26.90206529966309,-2.6757409693448633 L -23.814970519627927,-2.586321342972697 L -23.025508662113758,-1.5776508100032909 L -24.896489353596166,-0.1132797950966351 Z M -26.111465634957526,-1.665616695988587 L -24.896489353596166,-0.1132797950966351 L -28.08616358026469,2.3832005297897676 L -29.301139861626048,0.830863628897817 Z M -29.301139861626048,0.830863628897817 L -31.182973602400246,-1.573496029773161 L -29.683347369445613,-2.756302539765038 L -26.90206529966309,-2.6757409693448633 L -26.111465634957526,-1.665616695988587 Z M -22.79816094687674,4.106578470997208 L -25.118163710720292,6.175320417244546 L -28.08616358026469,2.3832005297897676 L -25.64339865774087,0.4713079244522005 Z M -21.43886980118659,0.4495476546833354 L -20.311834092707638,1.889525657327514 L -22.79816094687674,4.106578470997208 L -24.0567597968137,2.498506389138828 Z M -20.380542305358777,1.8017393395788388 L -23.814970519627927,-2.586321342972697 L -20.256425035816935,-2.483245852822986 Z M -20.256425035816935,-2.483245852822986 L -14.276687398848827,-2.3100390213517557 L -19.557787994544665,1.2171442201220062 L -20.311834092707638,1.889525657327514 L -20.380542305358777,1.8017393395788388 Z"/><path d="M -13.55829539534433,-8.416782697645043 L -12.031110954836686,-8.37254684750052 L -9.43991066191641,-4.772840003873101 L -9.085971137717475,-2.7599383357474223 L -13.71826289472981,-2.894115556621149 Z M -13.71826289472981,-2.894115556621149 L -17.044947087151638,-2.990475039805258 L -16.884979587766157,-8.513142180829153 L -13.55829539534433,-8.416782697645043 Z M -16.884979587766157,-8.513142180829153 L -16.756398662750534,-12.952229197092688 L -15.84512039670407,-13.670985539044777 L -12.031110954836686,-8.37254684750052 Z M -21.699507289474184,-3.1252972800908942 L -28.94927402663778,-3.335291296832791 L -24.582015498246324,-6.779897495819724 Z M -24.582015498246324,-6.779897495819724 L -22.47607640956265,-8.44092369621746 L -18.203591703900912,-3.0240359040190414 L -21.699507289474184,-3.1252972800908942 Z M -17.705299172585676,-8.658838243049349 L -20.752367085527613,-6.255511544293134 L -22.47607640956265,-8.44092369621746 L -19.429008496620717,-10.844250394973676 Z M -19.429008496620717,-10.844250394973676 L -16.756398662750534,-12.952229197092688 L -16.861481398987852,-9.324386186880599 L -17.705299172585676,-8.658838243049349 Z M -16.968566370965796,-5.627418625895373 L -17.044947087151638,-2.990475039805258 L -18.203591703900912,-3.0240359040190414 L -20.752367085527613,-6.255511544293134 L -18.725119076688518,-7.854471398108581 Z"/></g><g fill="#99948A" stroke="#1A1917" stroke-width="0.09999999999999999"><path d="M -0.25642025158434434,10.947790200571387 L 1.5623690879736225,12.160984897527769 L 0.35041078232615663,13.957956273331467 L -1.4621301962341438,12.73549712741989 Z M -1.4621301962341438,12.73549712741989 L -3.186055998035693,11.572804041739046 L -1.9862889318478207,9.793908624689355 L -0.25642025158434434,10.947790200571387 Z M -4.359467325540349,13.312621787732553 L -5.803022689991868,12.339023133259555 L -3.434820655534195,8.827688421322371 L -1.9862889318478207,9.793908624689355 Z M -3.379727454265195,19.488634686698685 L -5.988804690451497,23.35711521844693 L -10.968826835264865,19.998364332381506 L -8.359749599078565,16.129883800633262 Z M 0.8043290794859312,21.19923753182535 L 2.123641763705306,22.089041335556274 L 0.45532339495508556,27.703324991694743 L -2.31992572489678,25.831572182309586 Z M -2.31992572489678,25.831572182309586 L -5.988804690451497,23.35711521844693 L -2.864549886068785,18.724780567962693 L 0.8043290794859312,21.19923753182535 Z M 3.103257019211407,18.792405620628628 L 2.123641763705306,22.089041335556274 L -2.864549886068785,18.724780567962693 L -1.0300273358230068,16.004732777789805 Z M 0.8024828163967714,17.240660032431105 L -1.0300273358230068,16.004732777789805 L 1.5623690879736225,12.160984897527769 L 3.4011964407965296,13.38754563468564 Z M 3.4011964407965296,13.38754563468564 L 4.492944871594337,14.115779178750868 L 3.103257019211407,18.792405620628628 L 0.8024828163967714,17.240660032431105 Z M -12.885306921767299,12.196127652590757 L -10.11321158174959,9.818271018443944 L -5.982070918441097,12.604498059180987 L -7.951099963028394,15.523978716858574 Z M -11.163716686366707,13.357245527260373 L -7.951099963028394,15.523978716858574 L -10.968826835264865,19.998364332381506 L -14.181443558603176,17.831631142783305 Z M -13.067499657372288,16.17998578878441 L -14.181443558603176,17.831631142783305 L -17.13381032651332,15.840422226566744 L -15.56554565000596,14.495191234220243 Z M -15.56554565000596,14.495191234220243 L -12.885306921767299,12.196127652590757 L -11.163716686366707,13.357245527260373 L -13.067499657372288,16.17998578878441 Z M -5.348625241343269,7.55111530534036 L -3.434820655534195,8.827688421322371 L -5.982070918441097,12.604498059180987 L -7.889300723064115,11.318176510816063 Z M -6.663118230951069,9.500114924397334 L -7.889300723064115,11.318176510816063 L -10.11321158174959,9.818271018443944 L -8.386931930496242,8.337497445519428 Z M -8.386931930496242,8.337497445519428 L -6.542096782931517,6.7550289671748205 L -5.348625241343269,7.55111530534036 L -6.663118230951069,9.500114924397334 Z"/></g><g fill="#99948A" stroke="#1A1917" stroke-width="0.09999999999999999"><path d="M -6.409058419624598,-27.414843986043138 L -9.596125309491052,-30.934377372232845 L -6.123844150911956,-35.05235256014646 L -2.452315777185874,-30.99781993305961 Z M -3.472914211806053,-30.073630524432083 L -2.452315777185874,-30.99781993305961 L -0.3780699225255555,-28.707194166824596 L -1.3986683571457355,-27.78300475819707 Z M -13.072024480050409,-25.18327758631671 L -13.783220481921072,-25.968663698126026 L -9.596125309491052,-30.934377372232845 L -8.300735157534053,-29.50385550196703 Z M 2.1015964393036892,-25.968855484690664 L 3.673992689996693,-24.232430962748662 L -0.2187045235638312,-20.707450506448637 L -1.7911007742568341,-22.44387502839064 Z M -2.6096756497608466,-26.68639312756871 L -0.3780699225255555,-28.707194166824596 L 2.1015964393036892,-25.968855484690664 L -0.1300092879316006,-23.948054445434778 Z M 3.673992689996693,-24.232430962748662 L 5.624991089859443,-22.077909503989012 L 0.1580487627320497,-20.291395301052365 L -0.2187045235638312,-20.707450506448637 Z M -3.2609801261164204,-19.174108286724554 L -6.632743011707076,-18.072267088555645 L -9.10610188748064,-20.803640304157803 L -6.705262221695798,-22.977688897282437 Z M -6.705262221695798,-22.977688897282437 L -4.270767136086081,-25.18221371052457 L -0.8124628536182561,-21.363148155154832 L -3.212284731505568,-19.19002120639415 L -3.2609801261164204,-19.174108286724554 Z M -0.8124628536182561,-21.363148155154832 L 0.1580487627320497,-20.291395301052365 L -3.212284731505568,-19.19002120639415 Z M -13.48566518915493,-19.638668360890453 L -11.805826105463822,-20.187614408257875 L -10.682134610219881,-16.7489870590411 L -12.36197369391099,-16.200041011673676 Z M -12.36197369391099,-16.200041011673676 L -14.411663438902053,-15.53023335285313 L -14.692165682712309,-19.244402217475162 L -13.48566518915493,-19.638668360890453 Z M -11.805826105463822,-20.187614408257875 L -9.292114596242602,-21.009057373007188 L -6.632743011707076,-18.072267088555645 L -10.682134610219881,-16.7489870590411 Z M -14.8861363937626,-21.812795132431397 L -15.083532897847938,-24.426549445052682 L -13.783220481921072,-25.968663698126026 L -12.212391253971544,-24.233969666648502 Z M -12.760923232414799,-19.87550308891669 L -14.692165682712309,-19.244402217475162 L -14.8861363937626,-21.812795132431397 L -13.734722513120003,-22.855442737346277 Z"/></g><g fill="#99948A" stroke="#1A1917" stroke-width="0.09999999999999999"><path d="M 9.889622435552692,-16.000510193160917 L 7.833880948961345,-17.48522065700557 L 7.08177411206441,-21.51972178939841 L 13.088276310818463,-23.747119577123875 L 15.57391480252996,-20.808370036765453 Z M 13.595632029384792,-16.00755999403976 L 12.053529301270926,-17.830775115040588 L 15.57391480252996,-20.808370036765453 L 17.116017530643823,-18.985154915764625 Z M 17.34576700897032,-14.708377375565798 L 15.755231706011118,-13.454283410092955 L 13.595632029384792,-16.00755999403976 L 15.14119697569099,-17.31482203499278 Z M 15.14119697569099,-17.31482203499278 L 17.116017530643823,-18.985154915764625 L 19.378047708121006,-16.310775609801773 L 17.34576700897032,-14.708377375565798 Z M 12.7457213314673,-13.937760599304747 L 9.889622435552692,-16.000510193160917 L 12.053529301270926,-17.830775115040588 L 14.261737126660352,-15.22002952451396 Z M 14.261737126660352,-15.22002952451396 L 15.755231706011118,-13.454283410092955 L 14.636497897055296,-12.572192131658797 L 12.7457213314673,-13.937760599304747 Z"/><path d="M 14.146578027346099,-12.185903596582312 L 9.504146460207837,-8.525472166587154 L 7.9933198088521005,-16.62994820205669 Z"/><path d="M 24.788888142355006,-22.612106715738744 L 25.407184613172767,-21.064586603853616 L 20.163063460594685,-16.92973924811067 L 18.842038889356992,-20.236101468779566 Z M 21.434392508334373,-21.271850911656173 L 18.842038889356992,-20.236101468779566 L 16.877785146590575,-25.152387288357847 L 19.49603704929814,-26.12331650853004 Z M 19.49603704929814,-26.12331650853004 L 22.88404496307318,-27.379695193200174 L 24.788888142355006,-22.612106715738744 L 21.434392508334373,-21.271850911656173 Z M 17.60950353491979,-23.320986050246333 L 20.163063460594685,-16.92973924811067 L 19.849485306899343,-16.682491375321057 L 15.642061115288051,-21.656893707124706 Z M 15.642061115288051,-21.656893707124706 L 13.686485634438853,-23.968954195665297 L 16.877785146590575,-25.152387288357847 L 17.60950353491979,-23.320986050246333 Z"/><path d="M 14.255314228276537,-11.507565704955084 L 16.899588505610822,-13.592504283866372 L 20.07693572151836,-9.56275607057788 L 17.432661444184074,-7.477817491666592 Z M 13.29350394212184,-6.489097690439406 L 9.749727795356877,-7.208108560585089 L 9.628330738475723,-7.859314665128576 L 11.222220488708519,-9.116053521334422 Z M 11.222220488708519,-9.116053521334422 L 14.255314228276537,-11.507565704955084 L 17.432661444184074,-7.477817491666592 L 15.588208080898168,-6.0235160195839725 L 13.29350394212184,-6.489097690439406 Z M 19.75064920353868,-5.178981746093809 L 15.588208080898168,-6.0235160195839725 L 17.744322892677754,-7.723554094368379 Z M 17.744322892677754,-7.723554094368379 L 20.07693572151836,-9.56275607057788 L 23.099648196798427,-5.729127144044105 L 21.332488480483008,-4.858036068984766 L 19.75064920353868,-5.178981746093809 Z M 24.73396978329343,-6.5347379412056394 L 23.099648196798427,-5.729127144044105 L 19.712497790081102,-10.024963378520578 L 21.111978926079374,-11.128416313003184 Z M 27.4665902227473,-7.881736321915744 L 24.73396978329343,-6.5347379412056394 L 23.151646141526893,-8.541558548134986 L 25.491608354875957,-10.38655531478067 Z M 25.491608354875957,-10.38655531478067 L 26.986763838980632,-11.565444878923461 L 29.212640826777495,-8.742422022099051 L 27.4665902227473,-7.881736321915744 Z M 24.94709662353311,-14.15230264379166 L 27.397102721484217,-16.08406603005267 L 30.146470126839393,-9.20273716022867 L 29.212640826777495,-8.742422022099051 Z M 19.169726808365343,-15.382446790000255 L 22.281189046654152,-17.83575041021843 L 25.094098331124428,-14.268209504872633 L 21.982636092835623,-11.814905884654461 Z M 21.982636092835623,-11.814905884654461 L 19.712497790081102,-10.024963378520578 L 16.899588505610822,-13.592504283866372 L 19.169726808365343,-15.382446790000255 Z M 22.281189046654152,-17.83575041021843 L 25.63933051922053,-20.483553918958034 L 27.397102721484217,-16.08406603005267 L 25.094098331124428,-14.268209504872633 Z"/></g><g fill="#99948A" stroke="#1A1917" stroke-width="0.09999999999999999"><path d="M 32.616873510247544,16.679529698943416 L 33.11405863475754,13.442264708260499 L 36.018497033205435,13.888333711236777 L 36.45438686298203,15.560431105216423 L 36.19804321810554,17.229532343835704 Z M 36.19804321810554,17.229532343835704 L 35.82184390053705,19.679036201143457 L 32.24067419267905,19.12903355625117 L 32.616873510247544,16.679529698943416 Z M 33.892963523503724,9.800907628457027 L 35.02388823636623,10.07295958774217 L 36.018497033205435,13.888333711236777 L 33.32865541473288,13.475222877294717 Z M 30.77080366885189,11.314913805377728 L 31.10628203724704,9.130551636040105 L 33.892963523503724,9.800907628457027 L 33.593851358169964,11.748482673218593 Z M 25.82041860272573,11.342490986538866 L 26.287889749331928,8.298699242861671 L 27.806441863552166,8.336751682452334 L 31.10628203724704,9.130551636040105 L 30.65259003814603,12.084624782717928 Z M 19.988898841151187,12.43599017103052 L 20.548009905822312,8.154867214340891 L 26.287889749331928,8.298699242861671 L 25.521966400896847,13.285768885943208 Z M 22.432358357724187,17.622654330679435 L 19.37289061860976,17.15277563579847 L 19.988898841151187,12.43599017103052 L 23.154272910705014,12.922134155357188 Z M 30.25971485387658,23.081818389191117 L 29.815176222295182,25.976292254319006 L 26.667480842509864,23.642089962361382 L 26.834324379114385,22.555740606065076 Z M 30.31987511066873,22.690103747012998 L 30.898450381238547,18.922892349172983 L 35.82184390053705,19.679036201143457 L 35.63421087953645,20.900749764235183 L 34.144774878569855,23.2775389037936 Z M 34.144774878569855,23.2775389037936 L 31.85323860404055,26.934291209143307 L 31.258381451758627,27.046514289148995 L 29.815176222295182,25.976292254319006 L 30.31987511066873,22.690103747012998 Z M 24.983395599076115,18.014447332525613 L 27.473059906476355,18.396814566046945 L 26.667480842509864,23.642089962361382 L 24.379652667777695,21.945530059087236 Z M 24.379652667777695,21.945530059087236 L 19.244304032304015,18.137365319924434 L 19.37289061860976,17.15277563579847 L 24.983395599076115,18.014447332525613 Z"/><path d="M 23.254650278001158,4.291159166853081 L 21.089535437196712,4.0083969859897985 L 21.67685992345663,-0.4887566209277762 L 23.841974764261078,-0.20599444006449286 Z M 28.568163993329936,4.98509959803829 L 28.19871211949588,7.813998896236468 L 27.884993749129762,7.738531717607204 L 20.626138316962795,7.556636637916952 L 21.089535437196712,4.0083969859897985 Z M 31.074057001250097,8.505683497169622 L 28.19871211949588,7.813998896236468 L 28.643950252206906,4.404802921436726 L 31.559893818359594,4.785622703602758 Z M 31.559893818359594,4.785622703602758 L 33.71907116891359,5.0676094532231195 L 34.85225243498374,9.414555200669469 L 31.074057001250097,8.505683497169622 Z M 28.643950252206906,4.404802921436726 L 29.155488479589852,0.48794599112071446 L 32.64399067013234,0.9435414490399956 L 33.71907116891359,5.0676094532231195 Z M 23.9131139985626,-0.19670371577729195 L 21.67685992345663,-0.4887566209277762 L 22.10479578801306,-3.7654688334127755 L 24.341049863119032,-3.4734159282622903 Z M 22.10479578801306,-3.7654688334127755 L 22.15481913853524,-4.148498481407689 L 27.37341016970584,-6.720913430473921 L 26.90554925912295,-3.13849445972383 Z M 31.71224523518996,-2.630685355971957 L 32.64399067013234,0.9435414490399956 L 26.477613394566514,0.1382177527611681 L 26.92095080855821,-3.2564243863917537 Z M 26.92095080855821,-3.2564243863917537 L 27.37341016970584,-6.720913430473921 L 30.273344846611696,-8.150386495067536 L 31.71224523518996,-2.630685355971957 Z"/></g><g fill="#99948A" stroke="#1A1917" stroke-width="0.09999999999999999"><path d="M -19.965996328180793,33.78529398857996 L -23.064368346266562,33.14558145341754 L -23.283869080222427,32.75651766345856 L -21.292645236930316,27.124998183783266 L -18.02014853453304,28.282105689923686 Z M -16.228699757137104,33.14987446810283 L -16.692362778092345,34.46119230075671 L -19.965996328180793,33.78529398857996 L -19.350966816146013,32.045885991198446 Z M -17.4895246848405,28.46972660913396 L -21.292645236930316,27.124998183783266 L -19.265892140598854,21.392995937560443 L -15.46277158850904,22.737724362911134 Z M -15.025347082012704,20.601379552723998 L -14.27870336253654,18.48974420606428 L -11.667737222071972,20.250697186344816 L -12.15108191960112,21.617678145669263 Z M -14.946075691595418,20.377186586765017 L -15.745393541604253,22.63779332765998 L -19.265892140598854,21.392995937560443 L -18.46657429059002,19.13238919666548 Z M -18.46657429059002,19.13238919666548 L -17.4767042845585,16.33286857014643 L -14.27870336253654,18.48974420606428 L -14.946075691595418,20.377186586765017 Z M -13.772028743931424,31.273254769770595 L -10.78862049602882,32.328144779285495 L -11.893193134362141,35.45206394610611 L -15.021236043364523,34.806225341918406 Z M -15.021236043364523,34.806225341918406 L -16.692362778092345,34.46119230075671 L -15.365885806866526,30.709689963154865 L -13.772028743931424,31.273254769770595 Z M -10.78862049602882,32.328144779285495 L -8.763352980163257,33.04425008287028 L -9.769741308320611,35.89048733200137 L -11.893193134362141,35.45206394610611 Z M -5.424765755501914,36.78758274529833 L -9.769741308320611,35.89048733200137 L -8.763352980163257,33.04425008287028 L -4.619280702923091,34.50953410728818 Z M -4.619280702923091,34.50953410728818 L -2.3313989516711118,35.31849600649989 L -2.5849906261423605,36.003648288541505 L -4.385484422575443,37.002160366175545 L -5.424765755501914,36.78758274529833 Z M -12.47291100759429,22.527865508212706 L -11.667737222071972,20.250697186344816 L -7.577514529216872,23.0093273077269 L -7.970215851813023,24.119953395971287 Z M -4.954527865604243,30.01872290496133 L -0.9003905843278819,31.452207215473276 L -2.3313989516711118,35.31849600649989 L -6.3286977670064095,33.90510895552979 Z M -5.5232896756975425,29.81761695451595 L -9.489020749683093,28.41539180034499 L -7.577514529216872,23.0093273077269 L -3.9750669569557093,25.438979952532527 Z M -3.9750669569557093,25.438979952532527 L 0.26644864824638503,28.299648817643913 L -0.9003905843278819,31.452207215473276 L -5.5232896756975425,29.81761695451595 Z"/></g><g fill="#99948A" stroke="#1A1917" stroke-width="0.09999999999999999"><path d="M 8.829026649002891,34.75455670134178 L -1.8708604804574236,36.95513398316593 L 0.13468408805456633,31.5365671444981 Z M 5.161761180972979,28.483600618969984 L 7.954651743703594,29.00378736015317 L 6.187956785008188,33.77703192800199 L 3.562235602593402,32.80518807839959 Z M 1.2161017499806208,28.614800172243857 L 1.274882027871492,28.45598801242062 L 1.9562314727773384,26.16308689456052 L 4.7121142278193435,28.39985212328412 L 5.161761180972979,28.483600618969984 L 4.643653264519456,29.88342110614534 Z M 4.643653264519456,29.88342110614534 L 3.562235602593402,32.80518807839959 L 0.13468408805456633,31.5365671444981 L 1.2161017499806208,28.614800172243857 Z M 8.67848586991007,32.36882899717254 L 6.836171151639859,32.02569070800384 L 7.954651743703594,29.00378736015317 L 9.259956292139485,29.246905414388202 Z M 9.259956292139485,29.246905414388202 L 11.329512911029836,29.632368392293827 L 10.94813876700379,32.79156068595087 L 8.67848586991007,32.36882899717254 Z M 10.94813876700379,32.79156068595087 L 10.767367942980302,34.289013523587485 L 9.942199442725666,34.52561757974427 L 8.829026649002891,34.75455670134178 L 6.187956785008188,33.77703192800199 L 6.836171151639859,32.02569070800384 Z"/><path d="M 8.57538189618204,15.865294573159037 L 12.000789251026305,17.277488772441977 L 11.183433711575349,20.02808238355913 L 7.650360723216824,18.978208361221633 Z M 8.040020715369977,17.666910849682914 L 7.650360723216824,18.978208361221633 L 4.38003683776559,18.00641182509622 L 4.769696829918744,16.6951143135575 Z M 4.769696829918744,16.6951143135575 L 5.4047167197594925,14.558123044003516 L 8.57538189618204,15.865294573159037 L 8.040020715369977,17.666910849682914 Z M 8.020299105203842,19.088137790473017 L 11.183433711575349,20.02808238355913 L 10.438179753851568,22.536037215738745 L 8.476274837403043,23.01353942564449 L 6.985481836352932,22.57054126239051 Z M 5.107471504834393,22.01247912576344 L 3.3452195689146826,21.488815297013712 L 4.38003683776559,18.00641182509622 L 6.1422887736853,18.530075653845945 Z M 8.476274837403043,23.01353942564449 L 2.4567854425423743,24.478605068964907 L 3.3452195689146826,21.488815297013712 Z M 12.310989327943691,22.08021965655731 L 10.438179753851568,22.536037215738745 L 11.376807702925909,19.377333426107434 L 12.973203809251014,19.851712191254354 Z M 12.973203809251014,19.851712191254354 L 15.540912217170408,20.614722285666417 L 15.101708984824375,21.4009946889171 L 12.310989327943691,22.08021965655731 Z M 11.376807702925909,19.377333426107434 L 12.000789251026305,17.277488772441977 L 16.393466015254113,19.088459557272763 L 15.540912217170408,20.614722285666417 Z"/><path d="M 8.488431980721177,28.492887578659417 L 4.971854181657105,27.837911272096303 L 2.1412395536183144,25.54049119341917 L 2.2589809740788325,25.14426362383531 L 7.370620872285523,23.900156772798677 Z M 12.151036148280255,24.744693171587798 L 12.479684905916722,26.095006531433736 L 11.55717123888936,27.74651313381166 L 11.401569714838951,29.03547082368528 L 8.488431980721177,28.492887578659417 L 7.832016885019492,25.79588644071206 Z M 7.832016885019492,25.79588644071206 L 7.370620872285523,23.900156772798677 L 11.689640135546286,22.848963503674415 L 12.151036148280255,24.744693171587798 Z M 11.689640135546286,22.848963503674415 L 14.702497361165706,22.115673133023822 L 12.479684905916722,26.095006531433736 Z"/><path d="M 17.979718797399364,24.59499851399522 L 15.169077460501681,22.51074172962212 L 16.952083288594313,19.31876094665778 L 18.1404182519979,19.808676325554355 L 20.32676559425609,21.429982189548916 Z M 20.32676559425609,21.429982189548916 L 23.15247279571745,23.525411203554114 L 20.805425998860724,26.690427528000416 L 17.979718797399364,24.59499851399522 Z M 14.49997615533629,26.03667896565187 L 13.580428533956006,25.354780018512827 L 15.169077460501681,22.51074172962212 L 16.42436953475228,23.44161504589322 Z M 15.953963255594875,27.11489639536131 L 13.969773111046784,29.790596857197272 L 12.08361690528244,28.39190047547005 L 12.138670794104277,27.935850100723307 L 13.580428533956006,25.354780018512827 Z M 15.181234295436337,30.688966976294584 L 16.896842474896644,31.96119190959503 L 16.35973153105062,32.68549144532994 L 12.982615899432528,33.65382610219671 Z M 11.738774543069228,31.248474132325168 L 12.08361690528244,28.39190047547005 L 15.181234295436337,30.688966976294584 L 13.692147432009596,32.69701566010269 Z M 13.692147432009596,32.69701566010269 L 12.982615899432528,33.65382610219671 L 11.393393437243112,34.10951058430365 L 11.738774543069228,31.248474132325168 Z M 26.920478909646445,26.319610592645972 L 29.66746021841592,28.35665970104215 L 23.791316482910236,30.53931774792204 Z M 25.06395598738049,28.823150515049655 L 23.791316482910236,30.53931774792204 L 23.61088979585159,30.606336149463328 L 23.575060677966718,30.616609584061795 L 19.909602028564013,27.898455205001383 L 21.295949873451494,26.0289511259578 Z M 21.295949873451494,26.0289511259578 L 23.15247279571745,23.525411203554114 L 26.920478909646445,26.319610592645972 L 25.06395598738049,28.823150515049655 Z M 23.575060677966718,30.616609584061795 L 16.35973153105062,32.68549144532994 L 19.909602028564013,27.898455205001383 Z"/></g><g fill="#99948A" stroke="#1A1917" stroke-width="0.09999999999999999"><path d="M -29.50361767858351,11.503610349545557 L -27.514647651598583,9.842087667657605 L -24.18177265360446,14.833062381044915 L -26.32468476581526,16.264057048785663 Z M -27.738829071855484,14.146378324928572 L -26.32468476581526,16.264057048785663 L -29.352865456812125,18.28621670576824 L -30.767009762852346,16.168537981911154 Z M -30.767009762852346,16.168537981911154 L -32.314260539934224,13.851532541163408 L -29.50361767858351,11.503610349545557 L -27.738829071855484,14.146378324928572 Z M -24.401801183455827,10.473382563585178 L -23.16337172904127,9.646383670097201 L -20.84688290323221,12.606088431393488 L -22.320493798842204,13.590136877396734 Z M -22.320493798842204,13.590136877396734 L -24.18177265360446,14.833062381044915 L -26.26308003821808,11.716308067233358 L -24.401801183455827,10.473382563585178 Z M -26.26308003821808,11.716308067233358 L -27.514647651598583,9.842087667657605 L -24.790988549227396,7.566828958414824 L -23.16337172904127,9.646383670097201 Z M -35.05055822251594,15.333884898429483 L -33.01143917022274,14.433933528526662 L -32.314260539934224,13.851532541163408 L -29.352865456812125,18.28621670576824 L -31.929879462594723,20.007096101593582 Z M -37.45071837770716,19.4124942990959 L -38.08587754157504,18.77045953589394 L -39.095462277811876,17.119075881562736 L -35.05055822251594,15.333884898429483 L -33.90713519161213,17.046158967328015 Z M -33.90713519161213,17.046158967328015 L -31.929879462594723,20.007096101593582 L -34.90020247864394,21.990619538328872 L -37.45071837770716,19.4124942990959 Z"/><path d="M -39.110090388058914,11.544091125336738 L -41.24714128049013,12.246224839344437 L -42.62520014461892,8.051892810193513 L -40.48814925218771,7.3497590961858155 Z M -36.609217625218406,10.722422775063505 L -35.276782949171086,14.777890639297137 L -39.411216498234964,16.60259485755639 L -40.28592779299892,15.17182447981049 L -41.24714128049013,12.246224839344437 Z M -32.876782991104875,13.539638797645663 L -33.33114008837604,13.919194352807645 L -35.276782949171086,14.777890639297137 L -36.937273699326724,9.723934151096127 L -34.403911289724455,8.891591241584072 Z M -34.403911289724455,8.891591241584072 L -30.08190153467386,7.4715835234530195 L -29.232895660643713,10.495650518454141 L -32.876782991104875,13.539638797645663 Z M -33.775584670562374,5.14432827705766 L -30.992035253110874,4.229785765449179 L -30.08190153467386,7.4715835234530195 L -32.725581880541895,8.340171682241207 Z M -40.51250104583958,7.357759942295795 L -42.62520014461892,8.051892810193513 L -43.65205068056962,4.926516816322857 L -41.53935158179028,4.232383948425139 Z M -43.65205068056962,4.926516816322857 L -43.98440125233757,3.914957234683209 L -43.291929973073685,2.5447856540290243 L -39.40188157251148,1.2666488967335243 L -38.73066980554895,3.309584133969369 Z M -39.40188157251148,1.2666488967335243 L -37.211990724856356,0.5471257189631686 L -35.51391989430612,5.715462905231652 L -37.70381926959825,6.434960127840024 Z M -31.528687614682532,2.3182881609454036 L -30.992035253110874,4.229785765449179 L -35.51391989430612,5.715462905231652 L -36.133044826727044,3.8310618816652995 Z M -36.133044826727044,3.8310618816652995 L -37.211990724856356,0.5471257189631686 L -32.46392500587981,-1.0129261612657592 L -31.528687614682532,2.3182881609454036 Z"/><path d="M -26.29458048387825,5.645736933946045 L -25.160980775864836,7.09410155191029 L -28.728089809025892,10.073951668781564 L -29.702681851649324,6.602560339416512 Z M -29.702681851649324,6.602560339416512 L -30.344732860489348,4.315644165652382 L -27.87770614244707,3.623027177183041 L -26.29458048387825,5.645736933946045 Z M -30.344732860489348,4.315644165652382 L -31.893359041092843,-1.200394608175209 L -31.702072274242195,-1.2632448924700512 L -27.87770614244707,3.623027177183041 Z"/><path d="M -22.707038366342523,25.125627250753002 L -25.100932469236906,31.89596666695887 L -27.30184575203037,29.671228493079216 Z M -26.183218286227564,28.56458049427692 L -27.30184575203037,29.671228493079216 L -30.653037072999826,26.283760518751688 L -29.53440960719702,25.177112519949393 Z M -24.21166921102265,23.2656853156737 L -22.68174018589009,25.054079696469667 L -22.707038366342523,25.125627250753002 L -24.9156489079161,27.310585613287 L -26.58978165688842,25.618330373655958 Z M -26.58978165688842,25.618330373655958 L -28.26684022888556,23.92311763895947 L -25.827051736585723,21.509457028036802 L -25.33590084645283,21.951526615179606 L -24.21166921102265,23.2656853156737 Z M -31.44988009418752,20.4080430762757 L -28.924434129774,18.72159980678727 L -25.827051736585723,21.509457028036802 L -28.118059710685003,23.775930422695968 Z M -28.118059710685003,23.775930422695968 L -30.653037072999826,26.283760518751688 L -34.47039262395787,22.425082085629292 L -31.44988009418752,20.4080430762757 Z"/><path d="M -25.36493994385334,21.118144375877982 L -28.409559951182096,18.377776931400053 L -24.79975686093198,15.967221246774828 L -22.494191718308496,18.66228727787364 Z M -22.494191718308496,18.66228727787364 L -21.027788658361892,20.376423652378527 L -22.450825755301565,24.40101443794633 L -24.905414331652953,21.531749037394533 L -25.36493994385334,21.118144375877982 Z M -24.79975686093198,15.967221246774828 L -20.476027030520957,13.079919291266009 L -19.078985047635864,14.864875800620926 L -21.027788658361892,20.376423652378527 Z"/></g><g fill="#99948A" stroke="#1A1917" stroke-width="0.09999999999999999"><path d="M -4.000237526731965,-43.67844718543626 L -3.650122335472055,-45.478896379786164 L -0.19755003580443148,-44.80750947543463 L -0.5476652270643425,-43.007060281084726 Z M -0.5476652270643425,-43.007060281084726 L -0.9160141859191475,-41.112844883508814 L -4.368586485586768,-41.78423178786035 L -4.000237526731965,-43.67844718543626 Z M 3.6740129402604547,-40.220268614090216 L 2.8614883798288395,-36.041903245383295 L -5.233991938880941,-37.33392917299088 L -4.368586485586768,-41.78423178786035 Z M 10.113460615018228,-37.78929490454577 L 9.343696334111128,-35.00735305004522 L 2.8614883798288395,-36.041903245383295 L 3.4531436120485326,-39.08445956049062 Z M 7.388081684739605,-43.33240820126372 L 11.429770348021005,-42.54646178089349 L 10.113460615018228,-37.78929490454577 L 6.4487482064129695,-38.50193455573831 Z M 0.34184549431966404,-44.702618668303394 L -3.650122335472055,-45.478896379786164 L -1.6834972613344408,-55.59216372353545 L -1.6289488099858545,-55.61858523115739 L 2.0910714291212393,-53.69792222458777 Z M 1.1680144541366797,-48.95114965248228 L 2.0910714291212393,-53.69792222458777 L 7.260343491019736,-51.02900405156047 L 8.698109450108882,-50.131849842687345 L 8.202503792272019,-47.58322347730002 Z M 12.262736947509767,-45.55681794315669 L 11.429770348021005,-42.54646178089349 L 7.376334832455003,-43.334692493121125 L 7.970749196802818,-46.39143750195325 Z M 10.094675854665237,-45.97841891171859 L 7.970749196802818,-46.39143750195325 L 8.698109450108882,-50.131849842687345 L 10.663828565487247,-48.905257178787224 Z M 10.663828565487247,-48.905257178787224 L 12.817415593437381,-47.56143647272178 L 12.262736947509767,-45.55681794315669 L 10.094675854665237,-45.97841891171859 Z"/><path d="M 6.460283858841334,-24.586648884232975 L 6.04883293484762,-23.099657898911868 L 4.114557151023865,-25.23571228199111 Z M 7.533197207557733,-28.46417688219255 L 6.460283858841334,-24.586648884232975 L 4.114557151023865,-25.23571228199111 L 2.217325075495127,-27.330858653849397 L 2.8866672804092417,-29.749873332784585 Z M 2.8866672804092417,-29.749873332784585 L 3.5228952864689345,-32.04921270584196 L 8.169425213617426,-30.763516255249925 L 7.533197207557733,-28.46417688219255 Z M 2.217325075495127,-27.330858653849397 L -1.2448750855265684,-31.15422649565137 L -0.6757693783307603,-33.21098468221917 L 3.5228952864689345,-32.04921270584196 Z M -0.6757693783307603,-33.21098468221917 L 0.06300894031724358,-35.88094271589476 L 9.182685409376852,-34.42545669338096 L 8.169425213617426,-30.763516255249925 Z M -1.2448750855265684,-31.15422649565137 L -5.518051197622157,-35.87316918223519 L -5.348587962468905,-36.74462507109749 L 0.06300894031724358,-35.88094271589476 Z"/><path d="M 12.291715595907515,-34.770840271535576 L 14.591513905324339,-33.42763748745216 L 12.071456416706098,-29.112857901946533 L 9.771658107289275,-30.456060686029947 Z M 9.771658107289275,-30.456060686029947 L 8.855031277708708,-30.991418810443204 L 10.233432517000878,-35.97298549909696 L 12.291715595907515,-34.770840271535576 Z M 14.591513905324339,-33.42763748745216 L 16.88474217447044,-32.088271951333944 L 14.3646846858522,-27.773492365828318 L 12.071456416706098,-29.112857901946533 Z M 11.628505149756279,-29.371564664423953 L 14.3646846858522,-27.773492365828318 L 12.510949086065057,-24.599572501296898 L 12.487344868424291,-24.590819323421606 L 9.764953763603,-26.180838455267622 Z M 8.29410424803993,-28.964218510479462 L 8.855031277708708,-30.991418810443204 L 11.628505149756279,-29.371564664423953 L 10.60299217037803,-27.615706915909453 Z M 10.60299217037803,-27.615706915909453 L 9.764953763603,-26.180838455267622 L 7.83572058667889,-27.307611774379964 L 8.29410424803993,-28.964218510479462 Z M 12.487344868424291,-24.590819323421606 L 6.65652701851721,-22.428570755160486 L 6.525672727991127,-22.57307542360565 L 7.83572058667889,-27.307611774379964 Z M 16.88474217447044,-32.088271951333944 L 22.898279214866022,-28.576051048407763 L 22.702647249954673,-28.378971091731504 L 12.510949086065057,-24.599572501296898 Z"/><path d="M 15.874012897878174,-45.654144733636116 L 18.394078112801264,-44.08164463380392 L 17.476622966972375,-41.71398762396785 L 14.755765076022412,-42.76830632923252 Z M 14.755765076022412,-42.76830632923252 L 12.369550102804293,-43.69295259224191 L 13.348299232247818,-47.230169420549814 L 15.874012897878174,-45.654144733636116 Z M 12.978520307767488,-39.388750394875466 L 11.352877281818305,-40.018678865613374 L 12.369550102804293,-43.69295259224191 L 14.349137294428687,-42.92587254305079 Z M 14.349137294428687,-42.92587254305079 L 17.476622966972375,-41.71398762396785 L 16.106005980311174,-38.17686547579253 L 12.978520307767488,-39.388750394875466 Z M 13.847500941906052,-39.052024783393726 L 16.106005980311174,-38.17686547579253 L 14.545389685297671,-34.14941614777682 L 12.42715755313412,-35.38657476538556 Z M 12.42715755313412,-35.38657476538556 L 10.398946586845614,-36.571156302589166 L 11.352877281818305,-40.018678865613374 L 13.847500941906052,-39.052024783393726 Z"/><path d="M 16.99245501287269,-38.80391389541097 L 18.90047478562387,-43.72790000023436 L 23.94548957578809,-39.97838858193416 L 20.909162876471825,-35.89297280454589 Z M 20.909162876471825,-35.89297280454589 L 18.079336564377407,-32.0854058963794 L 15.070107796610401,-33.842953261406166 L 16.99245501287269,-38.80391389541097 Z M 27.69403173420899,-33.407299863858015 L 23.3348860416899,-29.015889469260916 L 18.079336564377407,-32.0854058963794 L 22.13331588363763,-37.54008607814015 Z M 22.13331588363763,-37.54008607814015 L 23.94548957578809,-39.97838858193416 L 29.18747901404947,-36.08248340209419 L 29.269226096783978,-34.994153202849105 L 27.69403173420899,-33.407299863858015 Z"/></g><g fill="#99948A" stroke="#1A1917" stroke-width="0.09999999999999999"><path d="M -38.02796020697559,-6.0540703787056 L -36.77192731061157,-9.975392918537509 L -31.272251820966368,-8.213800174213699 L -32.52828471733039,-4.29247763438179 Z M -39.593098025590976,-7.739698396236881 L -41.40115043951755,-8.31883293239761 L -41.286816301333296,-8.763132380581053 L -40.46842307482087,-11.15941189018685 L -38.681108791689375,-10.586919953359162 Z M -38.681108791689375,-10.586919953359162 L -36.77192731061157,-9.975392918537509 L -37.68391654451317,-7.128171361415228 L -39.593098025590976,-7.739698396236881 Z M -40.46547602520424,-4.081534782007331 L -42.337272545407785,-4.681087096511955 L -41.40115043951755,-8.31883293239761 L -39.32159110540712,-7.652732424966378 Z M -33.328125974665085,-1.7953809741323703 L -33.33306866629615,-1.7799499387220319 L -43.98442984726227,1.7197227745161006 L -42.337272545407785,-4.681087096511955 Z M -30.147222581681675,-3.664045836694394 L -31.966851771052017,-2.228842048135707 L -33.33306866629615,-1.7799499387220319 L -32.489286761595096,-4.414228874556204 Z M -30.328635794150127,-3.722154028606916 L -32.489286761595096,-4.414228874556204 L -31.272251820966368,-8.213800174213699 L -29.1116008535214,-7.52172532826441 Z M -29.1116008535214,-7.52172532826441 L -26.36973237993567,-6.643481581328277 L -30.147222581681675,-3.664045836694394 L -30.328635794150127,-3.722154028606916 Z"/><path d="M -36.633715718972574,-12.42687818816348 L -37.208079519111465,-10.745124037781048 L -40.274469161542065,-11.727314669854852 L -39.68020570631754,-13.46733559736245 Z M -39.68020570631754,-13.46733559736245 L -38.65343067933962,-16.473763165937626 L -35.60694069199465,-15.433305756738655 L -36.633715718972574,-12.42687818816348 Z M -35.60694069199465,-15.433305756738655 L -33.701093482990416,-14.782408213123949 L -35.28978332709311,-10.130677483673267 L -37.208079519111465,-10.745124037781048 Z M -36.629256298760254,-15.782453744100337 L -38.65343067933962,-16.473763165937626 L -37.37103637527943,-20.228651518508787 L -35.43617993812928,-19.275816523455756 Z M -36.15427716942308,-17.17320664655463 L -35.43617993812928,-19.275816523455756 L -32.63722411323914,-17.89744911161254 L -33.22611435365324,-16.173161115578246 Z M -34.24672818392617,-13.184773712708896 L -32.63722411323914,-17.89744911161254 L -27.677217286940614,-15.454855444683862 L -29.941911555476427,-11.064833518637123 Z M -29.941911555476427,-11.064833518637123 L -31.113843689814537,-8.793088569633774 L -35.28978332709311,-10.130677483673267 L -34.24672818392617,-13.184773712708896 Z"/><path d="M -26.930719219002157,-26.40812715339264 L -23.327596121421728,-23.88642722543918 L -24.55552251642881,-21.506139575778725 L -28.428757802200046,-23.504237512450263 Z M -27.564932872690466,-25.17872860535377 L -28.428757802200046,-23.504237512450263 L -31.284979734200608,-24.977685606340057 L -30.101450461042646,-26.487249824871775 Z M -30.101450461042646,-26.487249824871775 L -29.01811330225941,-27.86902131848376 L -26.930719219002157,-26.40812715339264 L -27.564932872690466,-25.17872860535377 Z M -32.762334820063494,-18.627869681434504 L -35.28815431762457,-19.871728999497535 L -31.284979734200608,-24.977685606340057 L -29.864626992461837,-24.24496381868111 Z M -31.305659197874796,-21.451578828135606 L -29.864626992461837,-24.24496381868111 L -24.55552251642881,-21.506139575778725 L -25.99655472184177,-18.71275458523322 Z M -28.864092784087635,-20.192040366437624 L -25.99655472184177,-18.71275458523322 L -27.402091352042806,-15.988176389327908 L -30.297250457847237,-17.413919849819504 Z M -30.297250457847237,-17.413919849819504 L -32.762334820063494,-18.627869681434504 L -31.305659197874796,-21.451578828135606 L -28.864092784087635,-20.192040366437624 Z"/><path d="M -34.85603513759073,-26.453728779989135 L -33.03683633735776,-30.68158511761613 L -29.510408822036172,-28.213561747198646 L -32.335646925384566,-24.610035880645846 Z"/><path d="M -28.67291122957299,-8.01123718232158 L -30.534448727518743,-8.607503444911465 L -28.80592230255363,-11.958184819777161 L -27.092714589593143,-11.074387027029724 Z M -26.511481637378253,-7.318912936255444 L -28.67291122957299,-8.01123718232158 L -27.092714589593143,-11.074387027029724 L -25.103510583520006,-10.048210167917983 Z M -25.103510583520006,-10.048210167917983 L -23.25926511289728,-9.096813519461254 L -25.80164977493861,-7.091547765179832 L -26.511481637378253,-7.318912936255444 Z M -20.998531936365953,-10.879931112227954 L -23.25926511289728,-9.096813519461254 L -24.546537939878434,-9.760882957476875 L -23.34483976065085,-12.090328229005854 Z M -20.666869388347667,-11.141524709549607 L -20.998531936365953,-10.879931112227954 L -23.34483976065085,-12.090328229005854 L -21.75965351523317,-15.163150230162998 L -19.25797917123133,-13.872603703506828 Z M -19.25797917123133,-13.872603703506828 L -18.016349556510498,-13.232080371397926 L -20.666869388347667,-11.141524709549607 Z M -27.15376664914995,-11.105882142928863 L -28.80592230255363,-11.958184819777161 L -27.258503291743228,-14.95779650274009 L -25.60634763833955,-14.105493825891791 Z M -27.258503291743228,-14.95779650274009 L -26.019037877908364,-17.360452092463284 L -21.75965351523317,-15.163150230162998 L -22.999118929068032,-12.760494640439806 Z M -19.426800948136986,-21.15639701524769 L -16.698029041334824,-19.24662492741498 L -16.343447042055594,-14.551555812141897 L -18.016349556510498,-13.232080371397926 L -22.359043194131548,-15.472359248543249 Z M -20.870151231378063,-18.358518520818194 L -22.359043194131548,-15.472359248543249 L -26.019037877908364,-17.360452092463284 L -24.53014591515488,-20.24661136473823 Z M -24.53014591515488,-20.24661136473823 L -22.831554444673397,-23.53926499238693 L -19.426800948136986,-21.15639701524769 L -20.870151231378063,-18.358518520818194 Z"/><path d="M -18.012516529469583,-25.389764807681274 L -17.11842709831728,-24.813173532452357 L -16.75642398427174,-20.019840413899257 L -20.12216276110601,-22.37540335227141 Z M -20.12216276110601,-22.37540335227141 L -25.575674086088345,-26.19212533008453 L -23.610595326781596,-28.999922002374998 L -18.012516529469583,-25.389764807681274 Z M -26.050767462799808,-30.573569911255316 L -23.610595326781596,-28.999922002374998 L -25.575674086088345,-26.19212533008453 L -27.95283004628515,-27.855813705757242 Z M -28.239347608300257,-31.984968114909773 L -26.050767462799808,-30.573569911255316 L -27.95283004628515,-27.855813705757242 L -30.084891248219126,-29.347968826108154 Z M -30.084891248219126,-29.347968826108154 L -32.794649006787836,-31.244433576130895 L -31.86812424501152,-33.3976966420161 L -30.89153674538958,-33.69534412811434 L -28.239347608300257,-31.984968114909773 Z"/></g><g fill="#99948A" stroke="#1A1917" stroke-width="0.09999999999999999"><path d="M 39.630001024449484,9.39705077064805 L 39.43036581516108,11.797157747298751 L 36.44198221402624,11.54859108279153 L 35.798019762576644,9.078315652319805 Z M 37.1372180008095,9.189706987443273 L 35.798019762576644,9.078315652319805 L 35.05190934710175,6.216195005971906 L 37.36852016541598,6.408885202722765 Z M 37.36852016541598,6.408885202722765 L 39.86130318905596,6.616228985927543 L 39.630001024449484,9.39705077064805 L 37.1372180008095,9.189706987443273 Z M 39.86130318905596,6.616228985927543 L 44.18826009996656,6.976135005490454 L 43.757322726071685,12.15706376686166 L 39.43036581516108,11.797157747298751 Z M 38.45486256238302,17.760245748652466 L 38.006591636726974,17.550519000299445 L 36.44198221402624,11.54859108279153 L 38.9541527764073,11.757547475514055 Z M 40.48440111634968,17.203432858166845 L 38.88078654774118,17.95951732167272 L 38.45486256238302,17.760245748652466 L 38.769837586673276,13.973470079348207 L 40.739435068450575,14.137296529299707 Z M 40.739435068450575,14.137296529299707 L 43.57300753633766,14.37298637069581 L 43.45403865021214,15.803285437739248 L 40.48440111634968,17.203432858166845 Z M 48.609585173687904,9.449858222216237 L 46.888655258046164,13.313600044510782 L 46.675633856117166,13.531262790567906 L 43.66385714023338,13.280750342225113 L 44.0142942695201,9.067632817132502 Z M 44.0142942695201,9.067632817132502 L 44.18826009996656,6.976135005490454 L 49.5140841543754,7.419124426411518 L 48.609585173687904,9.449858222216237 Z M 46.675633856117166,13.531262790567906 L 45.30714466997595,14.929568836381355 L 43.45403865021214,15.803285437739248 L 43.66385714023338,13.280750342225113 Z"/><path d="M 37.911564085623695,-3.087268908020723 L 40.981564968915094,-3.699563934508701 L 41.41929137779134,1.7375885257623216 L 38.32008364319158,1.9870950610196056 Z M 36.5446578471028,2.1300284739828785 L 34.03928887310975,2.3317270969126613 L 33.23813932791828,-0.7415266823490132 L 36.29367497719039,-0.987517328504735 Z M 33.23813932791828,-0.7415266823490132 L 32.887834997568746,-2.0853133868414613 L 37.911564085623695,-3.087268908020723 L 38.069100773279175,-1.1304507414680087 Z M 37.359636285689085,5.806074284817987 L 34.89147992021553,5.600778888666353 L 34.03928887310975,2.3317270969126613 L 37.06034815829527,2.088512024028613 Z M 37.27504194813876,4.755298500652739 L 37.06034815829527,2.088512024028613 L 41.41929137779134,1.7375885257623216 L 41.633985167634826,4.404375002386452 Z M 41.633985167634826,4.404375002386452 L 41.776407366853334,6.173450834173979 L 37.359636285689085,5.806074284817987 L 37.27504194813876,4.755298500652739 Z"/><path d="M 46.171734595784386,6.539043734730075 L 42.382406597573194,6.223856413771182 L 41.89189851082069,0.13108431551916025 L 45.631613628656346,-0.1699872620596672 Z M 46.04352981865957,4.94656746364507 L 45.631613628656346,-0.1699872620596672 L 49.46338700581327,-0.4784701328760004 L 50.42577029949548,3.3432099970646707 L 50.316989870114874,4.602525920674178 Z M 50.316989870114874,4.602525920674178 L 50.208330664174625,5.860438479637786 L 49.77267000280832,6.838561006505355 L 46.171734595784386,6.539043734730075 L 46.04352981865957,4.94656746364507 Z M 44.8988594253455,-0.11099574612409224 L 41.89189851082069,0.13108431551916025 L 41.573993829472656,-3.8177206577987723 L 44.5526172242694,-4.411790939778449 Z M 47.463007861908125,-2.75396490251994 L 48.86200494435456,-2.866593336870873 L 49.46338700581327,-0.4784701328760004 L 47.65790200419663,-0.333116756855683 Z M 44.703965283056995,-2.531843891788339 L 44.5526172242694,-4.411790939778449 L 48.28541221556665,-5.1562766565448035 L 48.86200494435456,-2.866593336870873 Z"/><path d="M 45.113300157991176,-8.037919878306427 L 45.67003933962399,-5.2464717929294755 L 43.581075090645626,-4.829839202651735 L 43.024335909012805,-7.621287288028686 Z M 44.8653531232038,-9.28110752948305 L 47.13280705108507,-9.733338918206252 L 48.138711183094266,-5.738835003642037 L 45.67003933962399,-5.2464717929294755 Z M 46.505839699358965,-12.223062800512523 L 47.13280705108507,-9.733338918206252 L 44.87279615951711,-9.28259200270956 L 44.37124539535855,-11.797329543228326 Z M 44.37124539535855,-11.797329543228326 L 44.06721227857591,-13.321728561176045 L 44.99556173341063,-13.650599530193036 L 46.32581788651821,-12.937939907800088 L 46.505839699358965,-12.223062800512523 Z M 44.87279615951711,-9.28259200270956 L 42.77638887422543,-8.864474939205309 L 42.03126170804037,-12.600486109300078 L 44.06721227857591,-13.321728561176045 Z M 38.80697060923106,-8.63677298868939 L 38.29461639611573,-11.276766729485042 L 42.03126170804037,-12.600486109300078 L 42.668209880310286,-9.406876220460179 Z M 39.17834284073315,-6.723213303663112 L 38.80697060923106,-8.63677298868939 L 42.668209880310286,-9.406876220460179 L 43.049465825836045,-7.495287788593095 Z M 43.049465825836045,-7.495287788593095 L 43.581075090645626,-4.829839202651735 L 39.6961706183099,-4.055016074834974 L 39.17834284073315,-6.723213303663112 Z"/><path d="M 38.508464463595395,-7.02558966912421 L 39.107751582321434,-3.937659089308534 L 32.73622624397862,-2.6668929155780456 L 31.93078592560567,-5.7566063370814256 Z"/></g><g fill="#99948A" stroke="#1A1917" stroke-width="0.09999999999999999"><path d="M 30.14595566791948,-22.951702994741208 L 33.10449211457128,-24.631898454565675 L 35.237965801287906,-19.83625023482589 L 32.14424458166137,-18.459924759378854 Z M 31.48610674780739,-19.939295023430507 L 32.14424458166137,-18.459924759378854 L 27.85615999174883,-16.55225446752207 L 27.254969879875766,-18.056959464397668 Z M 27.254969879875766,-18.056959464397668 L 26.195662857257958,-20.7082748115386 L 30.14595566791948,-22.951702994741208 L 31.48610674780739,-19.939295023430507 Z M 33.263786664645046,-18.957983304496075 L 35.237965801287906,-19.83625023482589 L 36.806796874793726,-16.309812579853332 L 34.832617738150866,-15.431545649523517 Z M 28.832344133474987,-14.108985480030455 L 27.85615999174883,-16.55225446752207 L 30.341162099595714,-17.65777479878906 L 31.409815265690888,-15.255643155257665 Z M 31.409815265690888,-15.255643155257665 L 31.909993173101537,-14.1313371438165 L 29.289242364582243,-12.96542533518917 L 28.832344133474987,-14.108985480030455 Z M 34.44065333633155,-10.548023368362234 L 30.77405616943162,-9.249118783463214 L 29.289242364582243,-12.96542533518917 L 32.69178968704118,-14.479140446817638 Z M 34.80854205035231,-15.420834929292539 L 36.806796874793726,-16.309812579853332 L 37.5275091914189,-14.689786628894826 L 35.52925436697748,-13.800808978334034 Z M 36.25683984572441,-12.575863186410405 L 36.78889772940079,-11.37989697481023 L 34.44065333633155,-10.548023368362234 L 33.98762661499888,-11.566342367645083 Z M 35.68171523439189,-13.868635314624454 L 37.5275091914189,-14.689786628894826 L 38.6989761881642,-12.056548800650788 L 36.78889772940079,-11.37989697481023 Z"/><path d="M 38.76191743025965,-13.39119794191061 L 37.804543791307864,-15.5431941047181 L 40.97529811097656,-16.95378983611712 L 41.932671749928346,-14.801793673309632 Z M 41.932671749928346,-14.801793673309632 L 42.54745146132952,-13.419884326656055 L 39.26626750199684,-12.257513688520817 L 38.76191743025965,-13.39119794191061 Z M 40.97529811097656,-16.95378983611712 L 43.18386633224675,-17.936331083826524 L 45.264315133047795,-15.143851470910139 L 45.004987930558954,-14.29047502482581 L 42.54745146132952,-13.419884326656055 Z M 37.804543791307864,-15.5431941047181 L 36.87412261610907,-17.634606190196955 L 41.58304376405308,-20.085033029222192 L 43.18386633224675,-17.936331083826524 Z"/><path d="M 36.44289928189823,-23.280857923410537 L 38.431233231155616,-24.315546490309277 L 41.21991320750649,-20.572444531775343 L 38.56991013922071,-19.193436806224035 Z M 38.56991013922071,-19.193436806224035 L 36.629783607377696,-18.183834399352385 L 34.753369494584106,-22.401660968079316 L 36.44289928189823,-23.280857923410537 Z M 34.753369494584106,-22.401660968079316 L 33.628736628674154,-24.9296244648132 L 36.68191400709559,-26.66356787290205 L 38.431233231155616,-24.315546490309277 Z"/><path d="M 33.301204558119366,-31.20132059713395 L 36.320684645603926,-27.14842749894231 L 32.725916725127576,-25.10690702149731 L 30.24917326876496,-29.468028069533382 Z M 30.24917326876496,-29.468028069533382 L 28.409055968255135,-32.7081594886729 L 29.983269992596103,-34.29402523334741 L 31.053553849012474,-34.21822674724992 L 33.301204558119366,-31.20132059713395 Z M 26.930902627232115,-29.241757340075935 L 26.21661665985639,-30.4994925966834 L 28.409055968255135,-32.7081594886729 L 29.537105486967874,-30.72185748123365 Z M 25.217004437299575,-29.492481632990295 L 26.21661665985639,-30.4994925966834 L 28.063302555643208,-27.247795006229303 L 26.87504059414924,-26.572963923771706 Z M 26.87504059414924,-26.572963923771706 L 24.41147770279572,-25.173871075100305 L 23.412377101112586,-27.674497146693863 L 25.217004437299575,-29.492481632990295 Z M 28.349268126292536,-24.80097044001808 L 29.285234467426022,-23.152894011236377 L 25.97096281814337,-21.270671406187276 L 25.261170195167324,-23.047195147088395 Z M 27.522369878145174,-24.33136301508798 L 25.261170195167324,-23.047195147088395 L 24.41147770279572,-25.173871075100305 L 26.401924909530056,-26.304274712195987 Z M 31.739289658224187,-26.84418831196799 L 32.725916725127576,-25.10690702149731 L 29.285234467426022,-23.152894011236377 L 28.298607400522634,-24.890175301707053 Z"/></g><g fill="#99948A" stroke="#1A1917" stroke-width="0.09999999999999999"><path d="M -23.825499641167116,-34.823182669359625 L -21.28170029994954,-31.95187217201594 L -23.413830390597354,-30.062939879601846 L -26.76166095898792,-32.221929606379916 Z M -26.76166095898792,-32.221929606379916 L -30.42786982640962,-34.58623900594171 L -30.48240611352856,-35.301425641540504 L -26.99018249798687,-38.39531470049729 L -23.825499641167116,-34.823182669359625 Z M -21.69517119280336,-36.34560388276493 L -23.64437214745147,-34.61873522508348 L -26.99018249798687,-38.39531470049729 L -25.040981543338756,-40.12218335817873 Z M -25.040981543338756,-40.12218335817873 L -22.587070197687396,-42.29619347315902 L -19.241259847151998,-38.51961399774522 L -21.69517119280336,-36.34560388276493 Z M -15.703698278828316,-26.79363542748007 L -16.633812935243835,-25.69055969653861 L -23.413830390597354,-30.062939879601846 L -20.71688438698759,-32.45226331697606 Z M -14.65854238361848,-33.346877081669966 L -12.36290179434486,-30.755675482036473 L -15.703698278828316,-26.79363542748007 L -18.496838770956003,-29.946389453968354 Z M -18.32905408458499,-40.94705735759042 L -20.04500156582809,-39.426836511956225 L -22.587070197687396,-42.29619347315902 L -20.871122716444294,-43.816414318793214 Z M -20.871122716444294,-43.816414318793214 L -19.47901367344209,-45.04973480773654 L -18.683523132199706,-45.61329799568625 L -16.21153545067146,-42.82304482427101 L -18.32905408458499,-40.94705735759042 Z M -13.238958115014114,-43.52312649219975 L -10.715905091801524,-45.758391756699275 L -8.997383506529005,-40.671451236635725 L -9.958326071416117,-39.82011695364224 Z M -15.251865235608907,-41.73981820421132 L -18.683523132199706,-45.61329799568625 L -12.215025030630859,-50.19588851357407 L -10.715905091801524,-45.758391756699275 Z M -11.08045469527245,-32.27660224245845 L -12.36290179434486,-30.755675482036473 L -15.804699307167546,-34.640600353339025 L -14.331274604350845,-35.94596136944169 Z M -8.302874334267436,-35.570692348265254 L -11.08045469527245,-32.27660224245845 L -14.331274604350845,-35.94596136944169 L -11.140066545224308,-38.773169700273286 Z M -11.140066545224308,-38.773169700273286 L -8.997383506529005,-40.671451236635725 L -7.568444390587519,-36.44169447833824 L -8.302874334267436,-35.570692348265254 Z"/><path d="M -11.151231404923266,-50.90853188699428 L -3.8407417234934993,-54.976197751474956 L -4.869289160862685,-49.686945953236716 Z M -4.869289160862685,-49.686945953236716 L -5.604577029922705,-45.905766260060815 L -10.450744865574801,-46.84815162921287 L -11.704013895831029,-50.55791301201226 L -11.4209004220527,-50.75848401010966 L -11.151231404923266,-50.90853188699428 Z M -5.604577029922705,-45.905766260060815 L -7.258705253163031,-37.39949774835373 L -10.450744865574801,-46.84815162921287 Z"/></g><g fill-rule="nonzero" stroke="#99948A" stroke-width="0.09999999999999999" stroke-linecap="butt"/><g fill="#99948A" stroke="#1A1917" stroke-width="0.09999999999999999"><path d="M 48.69545515369238,20.744485282376925 L 49.48830517841804,24.199195053119087 L 43.614157331085984,25.547302007122017 L 42.821307306360325,22.092592236379854 Z M 45.138526189894925,17.717734128682263 L 45.558808180049546,17.519576361056732 L 48.2561387932181,18.830238608168212 L 48.69545515369238,20.744485282376925 L 45.97637305312273,21.36851000622648 Z M 45.97637305312273,21.36851000622648 L 42.821307306360325,22.092592236379854 L 42.36388691397629,20.099460307737164 L 44.945204408714226,17.808882960870065 L 45.138526189894925,17.717734128682263 Z M 36.03828972358178,25.712589905030192 L 42.36388691397629,20.099460307737164 L 43.27114021781266,24.052663001255578 Z M 40.519125728066115,30.034569539937035 L 41.02786092073408,32.25129702435448 L 39.580357940631295,32.58349649977334 L 36.90214224931207,30.864661105037275 Z M 34.863671401212144,27.74931354521488 L 34.67796673088645,26.919696368238313 L 36.03828972358178,25.712589905030192 L 39.35267198412131,24.951944805556458 L 39.737938302340176,26.630677570115697 Z M 39.737938302340176,26.630677570115697 L 40.519125728066115,30.034569539937035 L 36.90214224931207,30.864661105037275 L 35.33603705138043,29.85956018847925 L 34.863671401212144,27.74931354521488 Z M 42.38858407702978,34.3857704896203 L 39.580357940631295,32.58349649977334 L 45.39251489138642,31.24961635124623 L 45.9259459623739,33.57395194497416 Z M 45.9259459623739,33.57395194497416 L 46.75544430605371,37.18835056180796 L 42.38858407702978,34.3857704896203 Z M 52.2134819717227,36.07369161769583 L 53.45624355496127,41.48881484456699 L 46.91377584136907,37.28996517331406 Z"/></g><g fill="#99948A" stroke="#1A1917" stroke-width="0.09999999999999999"><path d="M 43.94528786568784,38.00234127790311 L 44.12000799043701,37.87342681734827 L 49.2251962916697,41.1498538718955 L 46.81312696351049,42.64108299220376 Z"/><path d="M 37.11308427995522,36.28037673262875 L 34.534762696244435,32.78593036245002 L 35.306105658068695,32.21680724644318 L 39.21792795922834,34.727351356443194 Z M 29.4605324438907,36.529870315860336 L 26.592782902083194,31.898933359989375 L 28.076709320492455,31.347737867859383 L 35.13910155596701,32.10962672222742 L 35.306105658068695,32.21680724644318 Z"/><path d="M 21.23642081635506,33.88852165711955 L 26.019028822127506,32.11205084245982 L 27.683402271571566,34.79973622189603 L 23.94430642772012,37.558568522210415 Z M 23.94430642772012,37.558568522210415 L 21.255334722485923,39.54258345652411 L 19.440063313629672,37.111746205193654 L 20.286850118308546,34.24123394913672 L 21.23642081635506,33.88852165711955 Z"/></g><g fill-rule="nonzero" stroke="#99948A" stroke-width="0.09999999999999999" stroke-linecap="butt"><path d="M -53.866197779832596,-34.75553860739313 L -55.729871882084296,-35.30834653959378 L -55.39543503980855,-36.43582906197175 L -54.96930884633741,-37.87242268663594 L -56.188457708758406,-38.23404984068903 L -55.88494516016778,-39.25727769898874 L -54.66579629774679,-38.89565054493565 L -52.80212219549509,-38.342842612735 L -53.10563474408571,-37.31961475443529 L -53.53176093755685,-35.8830211297711 Z" fill="#99948A" stroke="#1A1917" stroke-width="0.09999999999999999"/></g><g fill-rule="nonzero" stroke="#99948A" stroke-width="0.09999999999999999" stroke-linecap="butt"><path d="M -59.14008134396157,-5.855098621280645 L -60.46774124999583,-5.465298069653899 L -61.7005116985712,-5.10335703437839 L -62.040220280538676,-6.26040379106397 L -60.80744983196331,-6.6223448263394795 L -61.15000259459626,-7.789078856732878 L -62.382773043171625,-7.42713782145737 L -63.43832041421746,-7.117229428779579 L -63.804811848838085,-8.365498528502926 L -62.74926447779225,-8.675406921180716 L -61.51649402921689,-9.037347956456227 L -60.18883412318262,-9.427148508082972 L -59.822342688561996,-8.178879408359624 L -59.47978992592905,-7.012145377966225 Z" fill="#99948A" stroke="#1A1917" stroke-width="0.09999999999999999"/></g><g fill="#99948A" stroke="#1A1917" stroke-width="0.09999999999999999"><path d="M -13.473544381430873,41.64768138023386 L -12.961157286049692,39.21382282691845 L -9.774726430842238,39.87171663328064 L -9.953578914481746,41.95052530042661 Z"/><path d="M -29.6520508405749,61.67380064538702 L -31.61007174651361,61.10904141615083 L -30.62291585666779,57.68657079561263 L -28.66489495072908,58.25133002484882 Z M -27.689975883266495,58.532529545976445 L -30.62291585666779,57.68657079561263 L -29.72900064918585,54.58736572949374 L -26.87239734708791,55.69798380822996 Z"/><path d="M -19.73221823202529,45.07000558748308 L -18.268649858596294,38.11799911397479 L -13.548767972292465,39.092500429352675 L -15.016196779231034,46.0628441115875 Z M -20.79322033655976,37.596757839128784 L -18.268649858596294,38.11799911397479 L -19.223444947289902,42.65331277473689 L -21.745950556533092,42.122263293475044 Z M -21.745950556533092,42.122263293475044 L -25.882465842691424,41.251425072581995 L -24.801495663831133,37.503700202698376 L -23.89494932481596,36.956352199366385 L -20.79322033655976,37.596757839128784 Z M -19.223444947289902,42.65331277473689 L -20.615147613561163,49.26395435511534 L -27.571281693891848,47.10655159685913 L -25.882465842691424,41.251425072581995 Z"/></g><g/><g/><g fill="#99948A" stroke="#1A1917" stroke-width="0.09999999999999999"><path d="M -30.856683914828487,31.623274731494856 L -27.615005017712544,34.90004480974182 L -27.749588684556954,35.63353088844463 L -35.14714154882219,39.006959953401314 L -37.25119864360703,35.73377923617297 Z M -33.863285139242336,33.55596992431437 L -37.25119864360703,35.73377923617297 L -40.99835824850934,29.904502742895385 L -37.17642275219441,28.401880629343204 Z M -37.17642275219441,28.401880629343204 L -34.92087027418166,27.515093545938143 L -30.856683914828487,31.623274731494856 L -33.863285139242336,33.55596992431437 Z"/><path d="M -44.093839702761564,43.08682962674784 L -46.35605682944861,44.11844496582482 L -47.54756376284423,41.80602437531141 L -45.33991611450179,40.66850316040538 Z"/><path d="M -38.66877464937379,34.63812739054629 L -35.69872419394851,39.258492448124436 L -40.52045750632511,41.45729732291146 L -43.16041248790796,37.52542976637554 Z"/><path d="M -38.63603675171477,24.57607777653351 L -38.04201227569585,24.360165175450682 L -35.380068541439016,27.050924456436263 L -37.441858590909696,27.861532412751497 Z"/></g><g fill-rule="nonzero" stroke="#99948A" stroke-width="0.09999999999999999" stroke-linecap="butt"><path d="M 87.98074834133034,30.83797201567674 L 89.23530869319926,30.990122817748063 L 90.30960929059361,31.12041204402223 L 91.60774537722077,31.277847632102002 L 91.49535874997066,32.20453224177077 L 90.19722266334351,32.047096653691 L 90.00900681641289,33.599031549452405 L 88.93470621901854,33.46874232317823 L 88.8092736396278,34.50299740953984 L 87.55471328775889,34.35084660746852 L 87.68014586714962,33.316591521106915 L 87.86836171408024,31.764656625345513 Z" fill="#99948A" stroke="#1A1917" stroke-width="0.09999999999999999"/></g><g/><g/><g fill="#99948A" stroke="#1A1917" stroke-width="0.09999999999999999"><path d="M -33.72689915537061,56.81064654402978 L -32.719095573382766,57.73735399063093 L -34.23166423015556,62.98143128642698 L -37.05234538458652,60.26969995872592 Z"/><path d="M -51.7561885150455,48.76728823902302 L -52.65089805748146,47.64845764529955 L -49.39144985820895,46.16208539586801 L -49.0431084591827,46.59768487905884 Z"/><path d="M -31.926932628646036,41.56523105300742 L -28.82477617649621,44.23574410314096 L -30.91430321156646,51.48013676888816 L -36.39824079995644,46.759250791082565 Z M -36.96713886247768,40.496356121052784 L -34.483973880694165,39.36398423046499 L -31.926932628646036,41.56523105300742 L -33.54376218653804,43.44339384453186 Z M -26.975136831409998,37.82304233813625 L -28.82477617649621,44.23574410314096 L -30.933117455184593,42.42076378679661 Z M -30.933117455184593,42.42076378679661 L -34.483973880694165,39.36398423046499 L -27.29545993663396,36.08588100934692 L -26.637757653545428,36.65334833529425 L -26.975136831409998,37.82304233813625 Z"/></g><g fill="#99948A" stroke="#1A1917" stroke-width="0.09999999999999999"><path d="M -4.271457584754973,-84.1757078443314 L -4.061719264402871,-79.01323067584408 L -5.360767847871521,-78.92227900365086 L -7.496313173865632,-81.66214538240226 Z"/></g><g fill="#99948A" stroke="#1A1917" stroke-width="0.09999999999999999"><path d="M -0.08795511210853196,-78.38078880283581 L -2.040947911837277,-78.54257747379587 L -2.1893279719454313,-82.19478881639257 L 0.21152567929551905,-81.99589872245171 Z M 3.498257275925438,-67.12444627533064 L 2.351437888184001,-67.24515191578412 L 2.841347378183782,-73.15897579980974 L 3.990281402974462,-73.06379648889907 Z M 2.351437888184001,-67.24515191578412 L -1.598854250714254,-67.66093015227096 L -2.040947911837277,-78.54257747379587 L 3.2510153650180436,-78.10418379131492 Z"/><path d="M 3.1296158314269302,-66.55993244477112 L 6.42759071696279,-66.21281224867634 L 5.694757473329329,-59.25019336340405 L 2.3967825877934628,-59.597313559498836 Z M 2.3967825877934628,-59.597313559498836 L -0.3787167328554393,-59.88944188123651 L -1.344698849870677,-61.405175591539994 L -1.5742378626358993,-67.05502494042514 L 3.1296158314269302,-66.55993244477112 Z M 4.68146123604119,-59.35684535464031 L 10.35824668268838,-58.75934933183236 L 9.679657051145531,-52.31209680204215 L 4.235814812081925,-55.12277677960062 Z M 4.235814812081925,-55.12277677960062 L 1.8858594625263037,-56.336069185790656 L -0.3787167328554393,-59.88944188123651 L 4.68146123604119,-59.35684535464031 Z"/></g><g fill-rule="nonzero" stroke="#99948A" stroke-width="0.09999999999999999" stroke-linecap="butt"/><g fill-rule="nonzero" stroke="#99948A" stroke-width="0.09999999999999999" stroke-linecap="butt"><path d="M 35.97331775659762,64.15021153068177 L 36.76864289053628,64.89794467620179 L 37.596182227510766,65.6759643376868 L 38.503794026653054,66.5292649521448 L 37.76571847789887,67.31431779912208 L 36.858106678756585,66.46101718466409 L 35.9323876735835,67.44565668632322 L 35.10484833660901,66.6676370248382 L 34.38131003918533,67.43722734827911 L 33.585984905246676,66.6894942027591 L 34.309523202670356,65.91990387931818 L 35.23524220784344,64.93526437765905 Z" fill="#99948A" stroke="#1A1917" stroke-width="0.09999999999999999"/></g><g/><g fill-rule="nonzero" stroke="#99948A" stroke-width="0.09999999999999999" stroke-linecap="butt"><path d="M -29.516762434843002,98.42397567157414 L -29.529552345193228,98.98426775338926 L -29.56609101844022,100.5849302083814 L -31.545896741873587,100.53973674851392 L -32.83621831870276,100.51028229462062 L -32.79967964545577,98.90961983962849 L -32.78688973510555,98.34932775781337 L -32.75468089309705,96.9383437362188 L -31.464359316267878,96.96779819011209 L -31.49656815827637,98.37878221170666 Z" fill="#99948A" stroke="#1A1917" stroke-width="0.09999999999999999"/></g><g fill-rule="nonzero" stroke="#99948A" stroke-width="0.09999999999999999" stroke-linecap="butt"/><g fill-rule="nonzero" stroke="#99948A" stroke-width="0.09999999999999999" stroke-linecap="butt"><path d="M -70.97591663883821,26.888891933805006 L -72.20520254256617,27.65231019184023 L -73.11763768981943,26.183071471415737 L -74.80774364864052,27.23267087141316 L -75.6972397381926,25.800369517864645 L -74.0071337793715,24.750770117867226 L -72.77784787564354,23.987351859832 L -71.88835178609148,25.419653213380514 Z" fill="#99948A" stroke="#1A1917" stroke-width="0.09999999999999999"/></g><g fill-rule="nonzero" stroke="#99948A" stroke-width="0.09999999999999999" stroke-linecap="butt"><path d="M 38.28535023075821,88.51191494275128 L 39.14683620184051,90.37780871430105 L 38.13754598135659,90.84379953272544 L 36.79467386509663,91.46380561600567 L 37.356140034966764,92.6798860450119 L 36.42608698983844,93.10929293995798 L 35.8646208199683,91.89321251095176 L 35.003134848886006,90.02731873940198 L 35.93318789401433,89.5979118444559 L 37.27606001027429,88.97790576117566 Z" fill="#99948A" stroke="#1A1917" stroke-width="0.09999999999999999"/></g><g/><g/><g/><g/><g fill-rule="nonzero" stroke="#99948A" stroke-width="0.09999999999999999" stroke-linecap="butt"/><g/><g/><g/><g/><g/><g/><g fill-rule="nonzero" stroke="#99948A" stroke-width="0.09999999999999999" stroke-linecap="butt"><path d="M -72.80715913950789,85.02043823385381 L -73.56944284971219,85.97647985892249 L -74.22025014396223,86.7927098988306 L -75.19446172719242,86.01593867808447 L -76.0394032006579,85.34223880518145 L -76.95413553198787,86.48947857016762 L -77.88468110495518,85.74752370829145 L -76.9699487736252,84.60028394330529 L -76.31914147937516,83.78405390339718 L -75.55685776917086,82.8280122783285 L -74.62631219620356,83.56996714020467 L -73.78137072273807,84.24366701310768 Z" fill="#99948A" stroke="#1A1917" stroke-width="0.09999999999999999"/></g><g/><g/><g/><g/><g/><g/><g/><g/><g/><g/><g fill-rule="nonzero" stroke="#99948A" stroke-width="0.09999999999999999" stroke-linecap="butt"/><g/><g/><g/><g/><g/><g/><g/><g/><g/><g/><g/><g/><g/><g/><g/><g/><g/><g/><g/><g/><g/><g/><g/><g><path fill="none" stroke="#1A1917" stroke-width="1.9" stroke-linejoin="round" stroke-linecap="round" d="M 38.237562789977105,20.41866461799267 L 34.194917353897104,26.869774810927964 M 29.936470500065393,30.33691371132365 L 17.46561324090102,34.96913820640114 L -3.245497327577566,39.22865971788096 L -22.201686081150424,35.31482642291807 M -27.081323863363593,32.66682029771112 L -41.318873982569336,18.27514866741444 L -46.3318768909744,3.0173108433075684 L -41.38005649830248,-16.225332717988803 L -33.01708704979327,-35.661049902791596 L -16.895155312914287,-49.94406087264929 L -4.745946396243934,-56.70406253386756 M 0.365000251205851,-56.783669551058445 L 14.245516489942839,-49.6170972374008 L 31.649468890280534,-36.682285157990606 L 47.82470196916555,-14.971100249443182 L 52.80777535123772,4.81697447641539 L 47.88461382258287,15.87019920293305 L 38.237562789977105,20.41866461799267"/><g stroke="#1A1917" stroke-width="3.8" stroke-linecap="butt"><line x1="33.185999525313875" y1="28.479770095134384" x2="31.717569575716734" y2="29.67533523320186" stroke="#CCC5B8" stroke-width="3.8" stroke-linecap="butt"/><line x1="36.13280945538714" y1="26.08053871070695" x2="33.185999525313875" y2="28.479770095134384"/><line x1="31.717569575716734" y1="29.67533523320186" x2="28.770759645643466" y2="32.074566617629294"/></g><g stroke="#1A1917" stroke-width="3.8" stroke-linecap="butt"><line x1="-24.06243918820668" y1="34.93064173480507" x2="-25.745072906211224" y2="34.01753617438888" stroke="#CCC5B8" stroke-width="3.8" stroke-linecap="butt"/><line x1="-20.72252638619599" y1="36.743093796230454" x2="-24.06243918820668" y2="34.93064173480507"/><line x1="-25.745072906211224" y1="34.01753617438888" x2="-29.084985708221915" y2="32.2050841129635"/></g><g stroke="#1A1917" stroke-width="3.8" stroke-linecap="butt"><line x1="-3.0856536771439695" y1="-57.62787425002169" x2="-1.3232582814716298" y2="-57.655324945604754" stroke="#CCC5B8" stroke-width="3.8" stroke-linecap="butt"/><line x1="-6.885192811221586" y1="-57.5686934371453" x2="-3.0856536771439695" y2="-57.62787425002169"/><line x1="-1.3232582814716298" y1="-57.655324945604754" x2="2.4762808526059867" y2="-57.714505758481145"/></g><polygon points="39.319197042405854,19.20857681959839 41.45932596209473,21.620349654487974 39.047553127205155,23.76047857417685 36.90742420751628,21.348705739287272" stroke="none" fill="#1A1917"/><polygon points="18.70192276546241,33.43161732152552 19.590657818824496,36.53112534779767 16.491149792552346,37.41986040115975 15.602414739190259,34.320352374887605" stroke="none" fill="#1A1917"/><polygon points="-1.6328556090199975,38.092077824871204 -1.634098576222384,41.31648450750796 -4.858505258859134,41.31524154030557 -4.857262291656747,38.09083485766882" stroke="none" fill="#1A1917"/><polygon points="-39.50769541775809,19.057493807565663 -42.25872240730738,20.73935304744615 -43.94058164718788,17.988326057896863 -41.18955465763859,16.306466818016375" stroke="none" fill="#1A1917"/><polygon points="-45.14243723204422,4.591370883367667 -48.36511137647745,4.697065532246163 -48.47080602535595,1.4743913878129336 -45.24813188092272,1.3686967389344378" stroke="none" fill="#1A1917"/><polygon points="-40.82494495809076,-14.332112474627321 -43.87630300713655,-15.374232456454493 -42.83418302530938,-18.425590505500285 -39.78282497626359,-17.38347052367311" stroke="none" fill="#1A1917"/><polygon points="-33.04027087121363,-33.68826146447027 -35.6531189770785,-35.57765945739774 -33.76372098415103,-38.190507563262614 -31.150872878286158,-36.30110957033514" stroke="none" fill="#1A1917"/><polygon points="-17.553288249384266,-48.084143468600566 -19.417251165452697,-50.71519691684552 -16.78619771720774,-52.57915983291395 -14.922234801139311,-49.948106384668996" stroke="none" fill="#1A1917"/><polygon points="12.275734275392029,-49.505788032079586 13.982682878255064,-52.241318413410404 16.71821325958588,-50.53436981054737 15.011264656722846,-47.79883942921655" stroke="none" fill="#1A1917"/><polygon points="29.705149596752666,-37.01703013071647 31.983823176219673,-39.29835578003509 34.26514882553829,-37.01968220056808 31.986475246071286,-34.73835655124946" stroke="none" fill="#1A1917"/><polygon points="46.10571569297198,-15.939355326480264 49.018179789120985,-17.32295674619729 50.40178120883801,-14.410492650048285 47.489317112689,-13.026891230331259" stroke="none" fill="#1A1917"/><polygon points="51.81353735776526,3.112884536216871 55.02598156185494,3.3903773029886133 54.7484887950832,6.602821507078291 51.53604459099352,6.325328740306549" stroke="none" fill="#1A1917"/><polygon points="48.19952005788233,13.922568392199285 50.503957071317814,16.17786660997638 48.24865885354071,18.482303623411863 45.94422184010523,16.227005405634767" stroke="none" fill="#1A1917"/></g></g></svg>