<svg width="155.64466543854334" height="134.28363131989624" xmlns="http://www.w3.org/2000/svg"><style><![CDATA[@import url("https://fonts.googleapis.com/css?family=Archivo+Narrow:700i");]]><![CDATA[@import url("https://fonts.googleapis.com/css?family=Archivo+Narrow:700");]]></style><rect x="0" y="0" width="155.64466543854334" height="134.28363131989624" id="background" fill="#CCC5B8"/><g id="map" transform="translate(77.82233271927167 67.14181565994812)"><g fill="none"><polyline points="23.251312052874436,15.103338846866546 37.863004696404516,24.995291861521657 51.57950786979454,31.562701661946363 59.07323527550707,35.84442129719891 62.93877211635612,37.948514066697605 65.67402752757918,39.30221984885996 68.11163788758876,40.38128526982515 70.25160319638485,41.18571032959318 72.3714689134383,41.87407723687709 74.47123503874911,42.4463859916769 76.55090157231729,42.9026365939926 78.6104685141428,43.24282904382417 80.66900964793732,43.71705668358197 82.72652497370086,44.325319513265974 84.78301449143339,45.067617532876184 86.8384782011349,45.9439507424126 88.89291610280544,46.954319141875224 90.946328196445,48.09872273126406 92.99871448205354,49.3771615105791 95.05007495963108,50.789635479820355 96.88303553157377,52.43488073218815 98.49759619788158,54.31289726768247 99.89375695855453,56.42368508630335 101.07151781359264,58.76724418805078 102.03087876299585,61.34357457292474 102.77183980676422,64.15267624092525 103.29440094489772,67.19454919205229 103.59856217739636,70.46919342630588 104.67208478465113,73.40841748852277 106.51496876666202,76.01222137870295 109.12721412342906,78.28060509684643 112.5088208549522,80.2135686429532 117.46717049004997,81.88502237426827 124.0022630287223,83.29496629079163 134.53624305742463,84.66513146425828 156.33554433552305,86.66071110987316" stroke="#67635C" stroke-width="2.1" stroke-linejoin="round" stroke-linecap="butt"/><polyline points="23.251312052874436,15.103338846866546 37.863004696404516,24.995291861521657 51.57950786979454,31.562701661946363 59.07323527550707,35.84442129719891 62.93877211635612,37.948514066697605 65.67402752757918,39.30221984885996 68.11163788758876,40.38128526982515 70.25160319638485,41.18571032959318 72.3714689134383,41.87407723687709 74.47123503874911,42.4463859916769 76.55090157231729,42.9026365939926 78.6104685141428,43.24282904382417 80.66900964793732,43.71705668358197 82.72652497370086,44.325319513265974 84.78301449143339,45.067617532876184 86.8384782011349,45.9439507424126 88.89291610280544,46.954319141875224 90.946328196445,48.09872273126406 92.99871448205354,49.3771615105791 95.05007495963108,50.789635479820355 96.88303553157377,52.43488073218815 98.49759619788158,54.31289726768247 99.89375695855453,56.42368508630335 101.07151781359264,58.76724418805078 102.03087876299585,61.34357457292474 102.77183980676422,64.15267624092525 103.29440094489772,67.19454919205229 103.59856217739636,70.46919342630588 104.67208478465113,73.40841748852277 106.51496876666202,76.01222137870295 109.12721412342906,78.28060509684643 112.5088208549522,80.2135686429532 117.46717049004997,81.88502237426827 124.0022630287223,83.29496629079163 134.53624305742463,84.66513146425828 156.33554433552305,86.66071110987316" stroke="#CCC5B8" stroke-width="1.9" stroke-linejoin="round" stroke-linecap="round"/></g><g fill="none"><polyline points="-28.8805777639951,13.145756352697735 -46.47204520685007,23.874846980949677 -55.32591454429313,33.90822584967261 -59.47202157287256,37.45321152480269 -61.7564767163961,39.407865716049294 -63.561315651056894,40.95385031512245 -65.34721693558599,42.48505261925883 -67.11418056998338,44.00147262845844 -69.01576607382609,45.63440610846683 -71.05197344711414,47.38385305928401 -73.22280268984748,49.249813480909964 -75.52825380202614,51.232287373344704 -78.01759041304358,53.20865512845089 -80.69081252289976,55.17891674622853 -83.54792013159471,57.14307222667761 -86.58891323912843,59.10112156979814 -89.8137918455009,61.05306477559011 -93.22255595071212,62.99890184405352 -96.81520555476212,64.93863277518838 -100.59174065765087,66.8722575689947 -104.3885998011053,68.50414834837792 -108.20578298512538,69.83430511333806 -112.04329020971116,70.86272786387514 -115.90112147486259,71.58941659998912 -120.27166770900646,71.95434040648274 -125.15492891214278,71.957499283356 -132.0280778695518,71.418800485017 -145.32263293707445,69.79796577469014" stroke="#67635C" stroke-width="2.1" stroke-linejoin="round" stroke-linecap="butt"/><polyline points="-28.8805777639951,13.145756352697735 -46.47204520685007,23.874846980949677 -55.32591454429313,33.90822584967261 -59.47202157287256,37.45321152480269 -61.7564767163961,39.407865716049294 -63.561315651056894,40.95385031512245 -65.34721693558599,42.48505261925883 -67.11418056998338,44.00147262845844 -69.01576607382609,45.63440610846683 -71.05197344711414,47.38385305928401 -73.22280268984748,49.249813480909964 -75.52825380202614,51.232287373344704 -78.01759041304358,53.20865512845089 -80.69081252289976,55.17891674622853 -83.54792013159471,57.14307222667761 -86.58891323912843,59.10112156979814 -89.8137918455009,61.05306477559011 -93.22255595071212,62.99890184405352 -96.81520555476212,64.93863277518838 -100.59174065765087,66.8722575689947 -104.3885998011053,68.50414834837792 -108.20578298512538,69.83430511333806 -112.04329020971116,70.86272786387514 -115.90112147486259,71.58941659998912 -120.27166770900646,71.95434040648274 -125.15492891214278,71.957499283356 -132.0280778695518,71.418800485017 -145.32263293707445,69.79796577469014" stroke="#CCC5B8" stroke-width="1.9" stroke-linejoin="round" stroke-linecap="round"/></g><g fill="#99948A" stroke="#1A1917" stroke-width="0.09999999999999999"><path d="M 0.46962987079324936,3.243245132768369 L 0.39907637731007894,5.764120464118879 L -6.758641388509575,7.2772242638384235 L -6.64017041938248,3.0442582006495087 Z M -6.64017041938248,3.0442582006495087 L -6.511954168153187,-1.5369066551951844 L 0.5978461220225428,-1.3379197230763238 L 0.46962987079324936,3.243245132768369 Z M 0.5978461220225428,-1.3379197230763238 L 9.144198815241754,-1.098726998411561 L 8.31462058659285,4.090816149563767 L 0.39907637731007894,5.764120464118879 Z M -6.395123786160937,-5.711254563095297 L -6.248533193797816,-10.948934369615479 L 1.1676131800439755,-9.332393094346898 L 1.0604258389844332,-5.502590903552347 Z M 1.0604258389844332,-5.502590903552347 L 0.9435954569921852,-1.328242995652234 L -6.511954168153187,-1.5369066551951844 L -6.395123786160937,-5.711254563095297 Z M 1.1676131800439755,-9.332393094346898 L 10.147496225468728,-7.3749948907170895 L 9.144198815241754,-1.098726998411561 L 0.9435954569921852,-1.328242995652234 Z"/></g><g fill="#99948A" stroke="#1A1917" stroke-width="0.09999999999999999"><path d="M 5.478678105586393,10.510727620471727 L 9.049226013570363,6.451694392140173 L 14.694528559628818,9.03567517616154 L 9.942736639390265,14.43755796710161 Z M 9.942736639390265,14.43755796710161 L 7.69279195272144,16.99531674263175 L 3.2287334189175674,13.068486396001866 L 5.478678105586393,10.510727620471727 Z M 6.480345680475254,9.372022280284359 L 3.2287334189175674,13.068486396001866 L -2.140721616156047,8.345219705628745 L 3.8688685871975013,7.074824019607961 Z M 3.8688685871975013,7.074824019607961 L 8.343862658942008,6.128833865314185 L 9.049226013570363,6.451694392140173 L 6.480345680475254,9.372022280284359 Z M -3.1452611189142736,22.179013996021006 L -4.857772852400852,20.672594894861817 L -5.690340570860325,15.8763669245233 L -3.639049056275719,13.544438987055937 L 0.9213676555820339,17.55603126385826 Z M 0.9213676555820339,17.55603126385826 L 4.460783397869386,20.669495175880552 L 0.39415462337307705,25.292477908043303 L -3.1452611189142736,22.179013996021006 Z M 5.655318653822686,15.20304365302552 L 7.69279195272144,16.99531674263175 L 4.460783397869386,20.669495175880552 L 2.4233100989706307,18.87722208627432 Z M 0.39415462337307705,25.292477908043303 L -2.169721453742272,28.207116909823718 L -3.620888355158012,27.797997297841206 L -4.857772852400852,20.672594894861817 Z M -5.690340570860325,15.8763669245233 L -6.825738054183704,9.335607480902587 L -2.140721616156047,8.345219705628745 L -0.40704050142366555,9.870260553807137 Z"/></g><g fill="#99948A" stroke="#1A1917" stroke-width="0.09999999999999999"><path d="M -12.703501108251947,-10.808705949061295 L -7.251474524294281,-10.857831781180538 L -7.389802549944401,-5.915373367282279 L -12.836188000571237,-6.067805149853522 Z M -12.836188000571237,-6.067805149853522 L -16.192336945891164,-6.161736027670999 L -16.06312620924435,-10.778433833517951 L -12.703501108251947,-10.808705949061295 Z M -12.806287005675486,-2.9001385472376002 L -16.267346731048843,-3.4816374573713085 L -16.192336945891164,-6.161736027670999 L -12.717724108533494,-6.064489618406595 Z M -12.717724108533494,-6.064489618406595 L -9.954717557266228,-5.987159429846911 L -10.054057867304445,-2.437731547246188 L -12.806287005675486,-2.9001385472376002 Z M -9.954717557266228,-5.987159429846911 L -7.389802549944401,-5.915373367282279 L -7.499147594884512,-2.008476447136252 L -10.054057867304445,-2.437731547246188 Z M -16.267346731048843,-3.4816374573713085 L -19.299310763919202,-3.991043223401112 L -20.522294310016665,-10.738254215877312 L -16.06312620924435,-10.778433833517951 Z"/><path d="M -7.656344051716658,3.6081507479209742 L -7.763429420395071,7.434309466969773 L -13.294166675781444,7.712698235258172 L -13.48599842298383,3.9015854610568406 Z M -13.48599842298383,3.9015854610568406 L -13.806193973244737,-2.4597252689879383 L -7.51609587879674,-1.402914500961952 L -7.656344051716658,3.6081507479209742 Z M -18.56995565554273,0.032815331654394264 L -19.185568045683148,-3.3635236453615285 L -13.806193973244737,-2.4597252689879383 L -13.693088355344948,-0.2126609978323857 Z M -17.99610952511294,3.1987294860851057 L -18.56995565554273,0.032815331654394264 L -13.693088355344948,-0.2126609978323857 L -13.532685079511486,2.9740637360444238 Z M -13.532685079511486,2.9740637360444238 L -13.294166675781444,7.712698235258172 L -17.142804863437053,7.906418818098315 L -17.99610952511294,3.1987294860851057 Z"/></g><g fill="#99948A" stroke="#1A1917" stroke-width="0.09999999999999999"><path d="M 10.340426982779256,-7.94702927417354 L 5.604682783361129,-8.979307438811134 L 9.726233987295808,-16.122004290409198 L 13.725892465517633,-13.814080888542506 Z M 13.725892465517633,-13.814080888542506 L 17.750749858067948,-11.491616954178596 L 10.450474628053422,-7.923041538243829 L 10.340426982779256,-7.94702927417354 Z M 17.248845549013996,-21.840007470377024 L 17.977494943071115,-21.23653466729966 L 20.86341258673729,-14.537220277718431 L 20.1742144122412,-12.676273115340177 L 17.750749858067948,-11.491616954178596 L 12.89447580467741,-14.293833342084012 Z M 12.89447580467741,-14.293833342084012 L 9.726233987295808,-16.122004290409198 L 14.330558677881474,-24.101353288860384 L 14.587643901739035,-24.04403430513925 L 17.248845549013996,-21.840007470377024 Z"/><path d="M -5.007744297003885,-24.84900431837546 L -4.639149785644925,-28.33078504810427 L 2.966768852041569,-26.634991256317328 L 2.5392821169809077,-23.73608377703696 Z M 2.5392821169809077,-23.73608377703696 L 1.6901578854667825,-17.97793414644036 L -5.621005945726288,-19.05607326541155 L -5.007744297003885,-24.84900431837546 Z M -5.8753030486390685,-16.653957321570704 L -5.621005945726288,-19.05607326541155 L 1.6901578854667825,-17.97793414644036 L 1.3380572241309132,-15.590240782197668 Z M -1.566628834673241,-16.01857965417942 L 1.3380572241309132,-15.590240782197668 L 0.5264121904579162,-10.086248106725439 L -2.34901179967693,-10.713021275651245 Z M -2.34901179967693,-10.713021275651245 L -6.410510901972042,-11.59833024979507 L -5.8753030486390685,-16.653957321570704 L -1.566628834673241,-16.01857965417942 Z"/><path d="M 3.2351666202830227,-24.342301987796244 L 3.5539519294403465,-26.50407460249442 L 9.812039139597294,-25.10878943774627 L 9.337784865236475,-22.981679737360814 Z M 9.337784865236475,-22.981679737360814 L 8.303532818232538,-18.34288641327192 L 2.5399607436568026,-19.62791590256383 L 3.2351666202830227,-24.342301987796244 Z M 9.812039139597294,-25.10878943774627 L 13.716796688695664,-24.238195900578443 L 10.085739378928121,-17.94553075312397 L 8.303532818232538,-18.34288641327192 Z M 2.1563047187659548,-17.02623676538726 L 2.5399607436568026,-19.62791590256383 L 10.085739378928121,-17.94553075312397 L 8.711884227968607,-15.56462357139535 Z M 8.711884227968607,-15.56462357139535 L 4.9893537510448756,-9.113434346300286 L 1.1140131531801531,-9.958165250516117 L 2.1563047187659548,-17.02623676538726 Z"/></g><g fill="#99948A" stroke="#1A1917" stroke-width="0.09999999999999999"><path d="M 11.059804873351633,21.43432410104366 L 5.454281787254299,24.623434548321583 L 0.508023602372635,26.677076831944852 L 7.711065454615577,18.488589525013523 Z M 7.711065454615577,18.488589525013523 L 15.570625582664961,9.553765923154867 L 20.787991925174303,14.236239200522899 L 20.775253625817918,14.517734079095291 L 12.932636050507398,20.36882755748852 L 11.059804873351633,21.43432410104366 Z"/></g><g fill="#99948A" stroke="#1A1917" stroke-width="0.09999999999999999"><path d="M 18.399678946345205,-0.6709971533188988 L 23.824476249316287,-0.5712238385790784 L 23.869120816105877,1.2770487705651687 L 22.846268456122715,6.712112016979524 L 17.209841456909007,5.651363982111296 Z M 17.209841456909007,5.651363982111296 L 12.84680238149127,4.830261335709901 L 13.897695079344906,-0.7537980080291398 L 18.399678946345205,-0.6709971533188988 Z M 18.151779272976466,5.828632078992709 L 22.846268456122715,6.712112016979524 L 21.770127561649723,12.430331040896037 L 17.611729523647536,8.698258878173448 Z M 17.611729523647536,8.698258878173448 L 16.413633386716715,7.622993547620059 L 12.645789988334387,5.898367655705835 L 12.84680238149127,4.830261335709901 L 18.151779272976466,5.828632078992709 Z M 12.645789988334387,5.898367655705835 L 8.906866213982703,4.186978920200255 L 9.708992854400156,-0.8308369612102855 L 13.897695079344906,-0.7537980080291398 Z"/><path d="M 19.113317129326536,-3.8972984709231695 L 19.153472259379576,-6.080582065141067 L 23.148151969748266,-6.007111589883108 L 23.671786333578332,-3.8134587332801644 Z M 23.671786333578332,-3.8134587332801644 L 23.754534219170047,-3.466804372633521 L 23.809974504501884,-1.1715920278726228 L 19.06479086090968,-1.2588658327226354 L 19.113317129326536,-3.8972984709231695 Z M 19.153472259379576,-6.080582065141067 L 19.205498501568172,-8.909312563314831 L 22.193122276259032,-10.008001829285307 L 23.148151969748266,-6.007111589883108 Z M 13.587183417512083,-6.8431948252033274 L 19.205498501568172,-8.909312563314831 L 19.06479086090968,-1.2588658327226354 L 13.48636299027353,-1.361464733401475 Z M 10.406923229350232,-5.196838466559465 L 10.487907310784284,-5.7034457645663545 L 13.587183417512083,-6.8431948252033274 L 13.55583831769024,-5.1389233632567395 Z M 13.55583831769024,-5.1389233632567395 L 13.48636299027353,-1.361464733401475 L 9.804641301580213,-1.4291792591827857 L 10.406923229350232,-5.196838466559465 Z"/><path d="M 10.596483528466582,-6.38265954700123 L 10.760162452912883,-7.40657605239421 L 20.7486359962178,-12.289216775692234 L 21.76282574228988,-11.810636045312632 L 22.05283679351518,-10.5956975024838 Z"/></g><g fill="#99948A" stroke="#1A1917" stroke-width="0.09999999999999999"><path d="M -14.115084226909827,9.756550981127432 L -7.420137319838747,9.419561907672426 L -6.296944826453897,15.89001125780406 L -12.852841471946197,17.028036378033782 Z M -12.852841471946197,17.028036378033782 L -16.511473942805175,17.6631311457935 L -17.81097219667429,10.177025530089768 L -17.06433750738661,9.905001169630394 L -14.115084226909827,9.756550981127432 Z M -10.025688173797281,21.67946345290014 L -13.795265468882336,22.33381691306398 L -15.947714398330918,20.910818073597852 L -16.511473942805175,17.6631311457935 L -10.892199815938625,16.687692474375755 Z M -6.046791511947882,17.331086016415465 L -5.430433184312555,20.881782236328448 L -10.025688173797281,21.67946345290014 L -10.64204650143261,18.12876723298716 Z M -10.64204650143261,18.12876723298716 L -10.892199815938625,16.687692474375755 L -6.296944826453897,15.89001125780406 L -6.046791511947882,17.331086016415465 Z M -20.05155094590128,10.993344420789608 L -17.81097219667429,10.177025530089768 L -17.06716604089656,14.461918890418588 L -19.379762948369805,14.863358009426006 Z M -19.379762948369805,14.863358009426006 L -22.396880916947804,15.38709354471683 L -22.974710785154407,12.05835077155532 L -20.05155094590128,10.993344420789608 Z M -22.396880916947804,15.38709354471683 L -22.982595535180113,15.488766585778642 L -25.861827882667495,13.110225528100045 L -22.974710785154407,12.05835077155532 Z M -19.000282004076436,18.77856577358825 L -22.982595535180113,15.488766585778642 L -17.06716604089656,14.461918890418588 L -16.39631274105452,18.3265479042 Z M -16.39631274105452,18.3265479042 L -15.947714398330918,20.910818073597852 L -18.30827089209823,19.350237887388438 L -19.000282004076436,18.77856577358825 Z M -10.35624171272079,21.7368435873375 L -5.430433184312555,20.881782236328448 L -4.220360139691037,27.852730129318275 L -9.795794729138178,24.965447626327293 Z M -9.795794729138178,24.965447626327293 L -9.882685278567699,24.920450674247903 L -13.795265468882336,22.33381691306398 L -10.35624171272079,21.7368435873375 Z"/></g><g fill="#99948A" stroke="#1A1917" stroke-width="0.09999999999999999"><path d="M -24.552813584887325,-9.762013142934007 L -21.069559781707696,-10.393379509410522 L -20.219272090625214,-5.702334830726236 L -23.70252589380484,-5.070968464249722 Z M -27.41367131467949,-9.243460820327963 L -27.814910273937393,-11.457099691556806 L -23.119533766445866,-12.308172559708995 L -21.138495860795857,-10.773700464738216 L -21.069559781707696,-10.393379509410522 Z M -26.563383623597005,-4.552416141643679 L -29.96569392443171,-3.9357214034357524 L -30.546421447873406,-9.247281284724469 L -30.560855572737474,-10.959376125084534 L -27.814910273937393,-11.457099691556806 Z M -30.560855572737474,-10.959376125084534 L -30.621214587775615,-18.118823558802823 L -23.119533766445866,-12.308172559708995 Z M -24.571128756300308,-4.913527558650404 L -20.219272090625214,-5.702334830726236 L -19.022696958793386,0.8991807077141925 L -23.37455362446848,1.687987979790023 Z M -23.768443416913353,-0.4851054734202007 L -23.37455362446848,1.687987979790023 L -29.101080706876964,2.7259647684033657 L -29.381792589597435,1.4048673917292707 L -29.475332842907623,0.5493118399217608 Z M -26.141389557755026,-0.054990854318925586 L -29.475332842907623,0.5493118399217608 L -29.96569392443171,-3.9357214034357524 L -26.94407489714198,-4.483412939549129 Z M -17.888303840292426,7.157637531081014 L -17.73205413087728,8.019668553739658 L -21.90120911946293,9.538633230438531 L -22.191407194895774,7.937607893013526 Z M -22.191407194895774,7.937607893013526 L -22.756204907872693,4.821613937343743 L -18.45310155326935,4.041643575411231 L -17.888303840292426,7.157637531081014 Z M -22.756204907872693,4.821613937343743 L -23.32580031339673,1.6791510696467054 L -19.022696958793386,0.8991807077141925 L -18.45310155326935,4.041643575411231 Z M -28.545966151135566,5.338466869263236 L -29.101080706876964,2.7259647684033657 L -23.32580031339673,1.6791510696467054 L -22.84966939159838,4.305969557652472 Z M -22.84966939159838,4.305969557652472 L -21.90120911946293,9.538633230438531 L -26.927474293191118,11.369872240625789 L -27.309355031500104,11.158255081589173 L -28.545966151135566,5.338466869263236 Z"/></g><g fill="#99948A" stroke="#1A1917" stroke-width="0.09999999999999999"><path d="M -6.520909977587543,-16.254820346172316 L -6.98613445761243,-11.860263239022975 L -10.065684919654498,-11.832514753818193 L -11.105481375388239,-14.393203810703898 Z M -11.105481375388239,-14.393203810703898 L -12.75831299599034,-18.463604147627375 L -5.9964043803398015,-21.209352833373686 L -6.520909977587543,-16.254820346172316 Z M -12.75831299599034,-18.463604147627375 L -15.105350376726715,-24.243613209797427 L -5.315662131531759,-28.218825706886776 L -5.285904348090421,-27.92080741156854 L -5.9964043803398015,-21.209352833373686 Z M -16.763061496660125,-28.326030206781507 L -17.870484009113476,-31.053260804030543 L -12.88607351195718,-33.48954758742982 L -11.634925704486095,-30.408367149209383 Z M -11.634925704486095,-30.408367149209383 L -9.977214584552684,-26.325950152225303 L -15.105350376726715,-24.243613209797427 L -16.763061496660125,-28.326030206781507 Z M -8.979029115861273,-30.59194952532339 L -5.686137694826412,-31.929064947245124 L -5.315662131531759,-28.218825706886776 L -7.633257333340512,-27.277740232183696 Z M -11.322986367073447,-29.640159445365 L -12.88607351195718,-33.48954758742982 L -6.558295738873737,-36.582447212299435 L -6.126781626110809,-36.34202646713043 L -5.686137694826412,-31.929064947245124 Z"/><path d="M -24.88133909494828,-24.63282544249523 L -25.271916236836525,-25.59469313072192 L -24.142701646546293,-26.869249626844717 L -20.027721381961904,-29.998843455554923 L -18.410819979839804,-30.78915467055161 L -17.18069896869296,-27.759756566221554 Z M -19.968934795342296,-26.627562197481677 L -17.18069896869296,-27.759756566221554 L -15.06541247255717,-22.550476468213578 L -17.853648299206508,-21.4182820994737 Z M -22.766052598812497,-19.423545344487252 L -27.953294987919996,-17.317207506739173 L -29.946016259989968,-18.860729302220793 L -30.069518101338318,-20.17958897355731 L -25.271916236836525,-25.59469313072192 Z M -16.759568500267818,-21.862545448890245 L -15.06541247255717,-22.550476468213578 L -13.204463509935639,-17.967549090715377 L -14.898619537646283,-17.279618071392044 Z M -13.418361143170578,-13.081854734385518 L -16.640996708900897,-11.773267488949628 L -16.73463501856925,-11.77242375500779 L -18.39447617316561,-15.8600863521496 L -15.091162376234427,-17.201433896471425 Z M -15.091162376234427,-17.201433896471425 L -13.204463509935639,-17.967549090715377 L -11.531662276871792,-13.847969928629468 L -13.418361143170578,-13.081854734385518 Z M -11.531662276871792,-13.847969928629468 L -10.71090339098522,-11.826700971765828 L -16.640996708900897,-11.773267488949628 Z M -16.73463501856925,-11.77242375500779 L -20.74816598598164,-11.736259579086374 L -27.953294987919996,-17.317207506739173 L -20.255425135787142,-20.443013729647802 Z"/></g><g fill="#99948A" stroke="#1A1917" stroke-width="0.09999999999999999"><path d="M 13.260745014035471,-25.364429376847287 L 8.266285510257552,-26.47797973457424 L 9.485945496911167,-31.948358662164217 L 14.480405000689087,-30.834808304437264 Z M 14.480405000689087,-30.834808304437264 L 18.37133368019242,-29.96729801234788 L 17.49558544413274,-25.484200759445557 L 16.28249184105339,-24.69070937618639 L 13.260745014035471,-25.364429376847287 Z M 14.898759632893542,-34.211212518958504 L 18.463580372050178,-31.819855327903532 L 18.646942707206268,-31.37818532105681 L 18.37133368019242,-29.96729801234788 L 14.161803863806325,-30.90584269958646 Z M 14.161803863806325,-30.90584269958646 L 9.485945496911167,-31.948358662164217 L 10.485239434417013,-36.430359021296184 L 12.587278114804121,-35.76180323718394 L 14.898759632893542,-34.211212518958504 Z M 9.851734148304224,-33.58898191161777 L 9.254126096517435,-30.908609898740558 L 5.1815483299123555,-31.816620149988672 L 5.85969689176923,-34.479035081878 Z M 5.85969689176923,-34.479035081878 L 6.455098571224192,-36.81658530466744 L 9.511101102454315,-36.74018482157079 L 10.485239434417013,-36.430359021296184 L 9.851734148304224,-33.58898191161777 Z M 9.254126096517435,-30.908609898740558 L 8.266285510257552,-26.47797973457424 L 4.060575024895716,-27.41567287472847 L 5.1815483299123555,-31.816620149988672 Z"/><path d="M 4.607263399863594,-31.992790454465784 L 3.474689752846378,-27.546300173595142 L -3.1912769739927844,-29.03252498483906 L -2.1932137637048483,-33.50900532666116 Z M -2.1932137637048483,-33.50900532666116 L -1.4119148148462994,-37.013261720043864 L 5.839858724804195,-36.83196638534602 L 4.607263399863594,-31.992790454465784 Z M -2.5908441213608384,-31.72556670172155 L -3.1912769739927844,-29.03252498483906 L -4.41927761520925,-29.30631648365513 L -4.707978332396438,-32.19759686960486 Z M -4.707978332396438,-32.19759686960486 L -5.112299670914073,-36.24679483165568 L -4.333146449552833,-37.08629291221338 L -1.4119148148462994,-37.013261720043864 L -2.5908441213608384,-31.72556670172155 Z"/></g><g/><g fill="#99948A" stroke="#1A1917" stroke-width="0.09999999999999999"><path d="M 28.782232951740042,21.93360642923837 L 30.03229935662861,20.901598335126458 L 34.014084006185925,23.59722215016314 L 31.719520204931772,25.491528249495175 Z M 21.021312922642174,23.873082468548546 L 18.633851344771827,20.98116182520684 L 23.157615037589856,17.606145258777914 L 23.568354458526446,17.596724842652222 L 25.617400494419066,20.07872437943269 Z M 23.568354458526446,17.596724842652222 L 25.098727705819893,17.561625331667226 L 30.03229935662861,20.901598335126458 L 27.810803233178213,22.735582491066886 Z"/><path d="M 31.732019800853525,26.259257448051073 L 34.53190213995816,23.94777925359903 L 37.00154058055326,25.61969694400911 L 35.73420956091823,28.21419885789958 Z"/></g><g fill="#99948A" stroke="#1A1917" stroke-width="0.09999999999999999"><path d="M -44.740054094951304,20.57385943519859 L -44.621717581023994,21.575010147828 L -46.799939731943226,22.903514602706238 L -48.03922887039096,21.17687440548195 Z"/><path d="M -32.17844468107073,7.007256399374689 L -31.66350961550869,9.430664192727436 L -35.951956856936114,10.341890057181999 L -36.46689192249815,7.918482263829256 Z M -33.88580046442423,15.027140955244814 L -36.57307744292862,16.666119530468748 L -37.83199175571904,10.741367147467477 L -34.92759023824453,10.124228674148418 Z M -34.92759023824453,10.124228674148418 L -31.66350961550869,9.430664192727436 L -31.114765924188497,12.01318347920685 L -31.888662958798374,13.80908058793624 L -33.88580046442423,15.027140955244814 Z M -36.57307744292862,16.666119530468748 L -39.2715097500696,18.311901775273896 L -40.7484499214956,11.361067464072221 L -37.83199175571904,10.741367147467477 Z M -40.043525503791756,14.678610668715992 L -39.2715097500696,18.311901775273896 L -44.058167516199184,21.231299213040778 L -44.76670928129864,15.236893348653613 Z"/></g><g fill="#99948A" stroke="#1A1917" stroke-width="0.09999999999999999"><path d="M 32.06569333335948,3.7409144626411495 L 31.465419209231133,8.871679928139187 L 26.67154079736671,7.4729748599822425 L 27.474974310446257,3.203823095060766 Z"/><path d="M 28.340919381974157,15.313410567915387 L 25.729754057726844,14.55155349540779 L 25.460835271867293,13.90622110480783 L 26.560038167526866,8.065459043458189 L 30.15003364384872,9.11290840199104 Z M 30.15003364384872,9.11290840199104 L 34.17367961872917,10.28688352902097 L 32.364565356854605,16.487385694945317 L 28.340919381974157,15.313410567915387 Z M 32.364565356854605,16.487385694945317 L 31.492829151654682,19.475147353988373 L 26.32302743814235,15.975249231795697 L 25.729754057726844,14.55155349540779 Z"/></g><g fill-rule="nonzero" stroke="#99948A" stroke-width="0.09999999999999999" stroke-linecap="butt"/><g fill="#99948A" stroke="#1A1917" stroke-width="0.09999999999999999"><path d="M -26.403787281532363,21.742443473548125 L -24.226426455043416,19.519890079043442 L -19.926536364325592,23.072040058604102 L -22.433981415322183,25.63152879461344 Z M -33.42544269614915,17.088999857531775 L -30.839828774379168,15.512025896351089 L -28.9109822835496,15.649966769515059 L -24.226426455043416,19.519890079043442 L -27.516270570564657,22.87801709106173 Z M -34.14594433815897,22.27306266363666 L -36.756845028403156,19.120832486505577 L -33.42544269614915,17.088999857531775 L -31.201608629922717,19.2676153150435 Z M -32.61650211186995,24.119610852122488 L -34.14594433815897,22.27306266363666 L -31.201608629922717,19.2676153150435 L -29.498100601114274,20.936484849835274 Z"/></g><g/><g/><g/><g/><g/><g/><g/><g/><g fill-rule="nonzero" stroke="#99948A" stroke-width="0.09999999999999999" stroke-linecap="butt"/><g/><g fill-rule="nonzero" stroke="#99948A" stroke-width="0.09999999999999999" stroke-linecap="butt"><path d="M -8.552500568850329,65.04211727359264 L -8.735293933807329,66.8585292126296 L -9.596736743104083,66.77183850858543 L -9.753229713310196,68.32690424920797 L -11.568511640729374,68.14422460219215 L -12.466268151692438,68.05387949378134 L -12.309775181486325,66.4988137531588 L -11.412018670523262,66.58915886156962 L -11.229225305566262,64.77274692253265 L -9.413943378147083,64.95542656954846 Z" fill="#99948A" stroke="#1A1917" stroke-width="0.09999999999999999"/></g><g fill-rule="nonzero" stroke="#99948A" stroke-width="0.09999999999999999" stroke-linecap="butt"><path d="M -67.95081366752036,-26.614221220181008 L -68.92227929305707,-27.1092788092388 L -70.31494610475823,-27.8189799618459 L -71.26587144517309,-28.30357024895941 L -70.63557540265079,-29.540418148589833 L -69.80042727686161,-31.179253133383654 L -68.84950193644676,-30.694662846270145 L -67.4568351247456,-29.984961693663042 L -66.48536949920889,-29.48990410460525 L -67.32051762499806,-27.85106911981143 Z" fill="#99948A" stroke="#1A1917" stroke-width="0.09999999999999999"/></g><g fill-rule="nonzero" stroke="#99948A" stroke-width="0.09999999999999999" stroke-linecap="butt"/><g/><g/><g/><g fill-rule="nonzero" stroke="#99948A" stroke-width="0.09999999999999999" stroke-linecap="butt"><path d="M -88.35817457678976,53.14735028668734 L -89.53712187527377,53.881139481662004 L -90.0021992287136,53.13391985349222 L -90.77159713185841,51.897761586807505 L -91.4336229468833,50.83411340079513 L -90.2546756483993,50.10032420582047 L -88.51644932398558,49.01843386439856 L -87.85442350896069,50.08208205041093 L -87.08502560581587,51.31824031709565 L -88.82325193022959,52.40013065851756 Z" fill="#99948A" stroke="#1A1917" stroke-width="0.09999999999999999"/></g><g/><g/><g/><g/><g fill-rule="nonzero" stroke="#99948A" stroke-width="0.09999999999999999" stroke-linecap="butt"/><g/><g/><g/><g/><g/><g/><g/><g/><g/><g/><g/><g/><g/><g/><g/><g/><g/><g/><g/><g/><g/><g/><g/><g/><g/><g/><g><path fill="none" stroke="#1A1917" stroke-width="1.9" stroke-linejoin="round" stroke-linecap="round" d="M 19.104461527724588,-23.549254361573304 L 23.278468731545342,-13.85979333896116 L 26.311098521558534,-1.155247072703185 L 23.78766246337797,12.253368980858715 M 20.926927864513065,16.837477868080143 L 10.429699582396795,24.66908043608673 L -3.466954789879553,30.43884738982848 L -15.474191164486172,24.220805919250264 L -26.644805754445006,14.99273321268065 M -29.483324376120024,10.309086382191486 L -32.44929759070995,-3.6494941919775226 L -32.58946903853318,-20.275844237027385 L -23.598596654416184,-30.423937346630254 L -5.8972890711572346,-39.07600597913615 L 11.806916024450691,-38.63339841964497 L 20.864189577595862,-32.557587648921654 L 19.104461527724588,-23.549254361573304"/><g stroke="#1A1917" stroke-width="3.8" stroke-linecap="butt"><line x1="23.436260470289447" y1="14.120590617208673" x2="22.449800263784308" y2="15.70131781969882" stroke="#CCC5B8" stroke-width="3.8" stroke-linecap="butt"/><line x1="25.448064522193803" y1="10.896828148176377" x2="23.436260470289447" y2="14.120590617208673"/><line x1="22.449800263784308" y1="15.70131781969882" x2="20.437996211879952" y2="18.925080288731117"/></g><g stroke="#1A1917" stroke-width="3.8" stroke-linecap="butt"><line x1="-28.109621898632998" y1="13.782644925105636" x2="-29.08842142334852" y2="12.167594293902477" stroke="#CCC5B8" stroke-width="3.8" stroke-linecap="butt"/><line x1="-26.140103396927447" y1="17.032413666330083" x2="-28.109621898632998" y2="13.782644925105636"/><line x1="-29.08842142334852" y1="12.167594293902477" x2="-31.05793992505407" y2="8.917825552678032"/></g><polygon points="18.7462790055942,-25.132273760282658 21.95227305299085,-25.47636992134413 22.296369214052323,-22.27037587394748 19.090375166655672,-21.926279712886007" stroke="none" fill="#1A1917"/><polygon points="21.69122015292607,-15.03157559758306 24.75139628864743,-16.047509659597665 25.767330350662036,-12.987333523876309 22.707154214940676,-11.971399461861704" stroke="none" fill="#1A1917"/><polygon points="25.135295647707395,-2.7395195599329965 28.358762337916144,-2.817381598916347 28.436624376899495,0.4060850912924028 25.213157686690746,0.4839471302757534" stroke="none" fill="#1A1917"/><polygon points="11.26865132442189,22.883417621750553 12.86310850560552,25.686006834848317 10.060519292507754,27.28046401603195 8.466062111324124,24.477874802934185" stroke="none" fill="#1A1917"/><polygon points="-1.8082651515781931,29.37058693668906 -1.944131159847956,32.59213011159714 -5.165674334756037,32.45626410332738 -5.0298083264862745,29.2347209284193" stroke="none" fill="#1A1917"/><polygon points="-13.502164861699443,24.161274641192087 -15.280377660164996,26.8510254183782 -17.97012843735111,25.072812619912646 -16.191915638885554,22.383061842726534" stroke="none" fill="#1A1917"/><polygon points="-31.143608165422137,-2.1704381292667443 -34.348914438737076,-1.8199931346557259 -34.69935943334809,-5.025299407970662 -31.494053160033157,-5.37574440258168" stroke="none" fill="#1A1917"/><polygon points="-32.08983443143503,-18.367232969288505 -35.10948621079935,-19.49794209695214 -33.97877708313572,-22.517593876316464 -30.959125303771394,-21.38688474865283" stroke="none" fill="#1A1917"/><polygon points="-24.19342946415975,-28.542819157785516 -26.1453372729235,-31.109306232774806 -23.57885019793421,-33.061214041538555 -21.62694238917046,-30.494726966549266" stroke="none" fill="#1A1917"/><polygon points="-7.230018033909525,-37.62126709404676 -7.917366024165789,-40.77156116608045 -4.767071952132088,-41.458909156336716 -4.079723961875825,-38.30861508430302" stroke="none" fill="#1A1917"/><polygon points="9.925872141896663,-38.038330672362356 10.903159462023313,-41.11106715535592 13.975895945016878,-40.13377983522927 12.99860862489023,-37.06104335223571" stroke="none" fill="#1A1917"/><polygon points="19.195738971841074,-33.61053792700054 22.173708391244727,-34.84686237353417 23.410032837778353,-31.86889295413052 20.4320634183747,-30.632568507596893" stroke="none" fill="#1A1917"/></g></g></svg>